<svg xmlns="http://www.w3.org/2000/svg" version="1.1" xmlns:xlink="http://www.w3.org/1999/xlink" xmlns:svgjs="http://svgjs.com/svgjs" width="700" height="700" preserveAspectRatio="none" viewBox="0 0 700 700"><g mask="url(&quot;#SvgjsMask1139&quot;)" fill="none"><rect width="700" height="700" x="0" y="0" fill="rgba(236, 82, 66, 1)"></rect><path d="M350 838.21C485.52 833.68 626.01 817.7 724.34 724.34 824.74 629 870.61 488.31 864.11 350 857.89 217.67 782.51 104.79 690.71 9.29 596.53-88.7 485.86-181.52 350-184.89 211.65-188.32 92.11-103.53-8.05-8.05-111.28 90.38-203.11 207.57-211 350-219.26 499.19-162.79 651.99-50.08 750.08 56.99 843.27 208.12 842.93 350 838.21" fill="rgba(224, 31, 11, 1)"></path><path d="M350 665.9C437.69 662.97 528.6 652.63 592.22 592.22 657.19 530.53 686.86 439.5 682.66 350 678.64 264.38 629.86 191.34 570.46 129.54 509.52 66.13 437.91 6.07 350 3.9 260.48 1.67 183.13 56.54 118.32 118.32 51.53 182.01-7.9 257.84-13 350-18.35 446.54 18.2 545.4 91.13 608.87 160.4 669.18 258.19 668.96 350 665.9" fill="rgba(164, 29, 15, 1)"></path><path d="M350 493.59C389.86 492.26 431.18 487.56 460.1 460.1 489.63 432.06 503.12 390.68 501.21 350 499.38 311.08 477.21 277.88 450.21 249.79 422.51 220.97 389.96 193.67 350 192.68 309.31 191.67 274.15 216.61 244.69 244.69 214.33 273.64 187.32 308.11 185 350 182.57 393.88 199.18 438.82 232.33 467.67 263.82 495.08 308.27 494.98 350 493.59" fill="rgba(204, 50, 34, 1)"></path></g><defs><mask id="SvgjsMask1139"><rect width="700" height="700" fill="#ffffff"></rect></mask></defs></svg>