<svg xmlns="http://www.w3.org/2000/svg" version="1.1" xmlns:xlink="http://www.w3.org/1999/xlink" xmlns:svgjs="http://svgjs.com/svgjs" width="1440" height="560" preserveAspectRatio="none" viewBox="0 0 1440 560"><g mask="url(&quot;#SvgjsMask1002&quot;)" fill="none"><g mask="url(&quot;#SvgjsMask1003&quot;)"><path d="M869 407L1111 407L1133 385L1287 385" stroke-width="3.67" stroke="rgba(211, 211, 211, 0.43)"></path><path d="M863.5 407 a5.5 5.5 0 1 0 11 0 a5.5 5.5 0 1 0 -11 0zM1281.5 385 a5.5 5.5 0 1 0 11 0 a5.5 5.5 0 1 0 -11 0z" fill="rgba(211, 211, 211, 0.43)"></path><path d="M627 187L473 33L473 11" stroke-width="3.67" stroke="rgba(211, 211, 211, 0.43)"></path><path d="M621.5 187 a5.5 5.5 0 1 0 11 0 a5.5 5.5 0 1 0 -11 0zM467.5 11 a5.5 5.5 0 1 0 11 0 a5.5 5.5 0 1 0 -11 0z" fill="rgba(211, 211, 211, 0.43)"></path><path d="M121 341L231 451L275 451L385 561L539 561" stroke-width="3.67" stroke="rgba(211, 211, 211, 0.43)"></path><path d="M115.5 341 a5.5 5.5 0 1 0 11 0 a5.5 5.5 0 1 0 -11 0zM533.5 561 a5.5 5.5 0 1 0 11 0 a5.5 5.5 0 1 0 -11 0z" fill="rgba(211, 211, 211, 0.43)"></path><path d="M1265 77L1265 363" stroke-width="3.67" stroke="rgba(211, 211, 211, 0.43)"></path><path d="M1259.5 77 a5.5 5.5 0 1 0 11 0 a5.5 5.5 0 1 0 -11 0zM1259.5 363 a5.5 5.5 0 1 0 11 0 a5.5 5.5 0 1 0 -11 0z" fill="rgba(211, 211, 211, 0.43)"></path><path d="M297 561L209 473L143 473L55 561L11 561" stroke-width="3.67" stroke="rgba(211, 211, 211, 0.43)"></path><path d="M291.5 561 a5.5 5.5 0 1 0 11 0 a5.5 5.5 0 1 0 -11 0zM5.5 561 a5.5 5.5 0 1 0 11 0 a5.5 5.5 0 1 0 -11 0z" fill="rgba(211, 211, 211, 0.43)"></path><path d="M297 517L253 473L231 473" stroke-width="3.67" stroke="rgba(211, 211, 211, 0.43)"></path><path d="M291.5 517 a5.5 5.5 0 1 0 11 0 a5.5 5.5 0 1 0 -11 0zM225.5 473 a5.5 5.5 0 1 0 11 0 a5.5 5.5 0 1 0 -11 0z" fill="rgba(211, 211, 211, 0.43)"></path><path d="M253 165L253 143L319 77L495 77L649 231" stroke-width="3.67" stroke="rgba(211, 211, 211, 0.43)"></path><path d="M247.5 165 a5.5 5.5 0 1 0 11 0 a5.5 5.5 0 1 0 -11 0zM643.5 231 a5.5 5.5 0 1 0 11 0 a5.5 5.5 0 1 0 -11 0z" fill="rgba(211, 211, 211, 0.43)"></path><path d="M297 275L297 297L385 385L385 539" stroke-width="3.67" stroke="rgba(211, 211, 211, 0.43)"></path><path d="M291.5 275 a5.5 5.5 0 1 0 11 0 a5.5 5.5 0 1 0 -11 0zM379.5 539 a5.5 5.5 0 1 0 11 0 a5.5 5.5 0 1 0 -11 0z" fill="rgba(211, 211, 211, 0.43)"></path><path d="M781 99L781 407L891 517" stroke-width="3.67" stroke="rgba(211, 211, 211, 0.43)"></path><path d="M775.5 99 a5.5 5.5 0 1 0 11 0 a5.5 5.5 0 1 0 -11 0zM885.5 517 a5.5 5.5 0 1 0 11 0 a5.5 5.5 0 1 0 -11 0z" fill="rgba(211, 211, 211, 0.43)"></path><path d="M341 187L385 143L385 99" stroke-width="3.67" stroke="rgba(211, 211, 211, 0.43)"></path><path d="M335.5 187 a5.5 5.5 0 1 0 11 0 a5.5 5.5 0 1 0 -11 0zM379.5 99 a5.5 5.5 0 1 0 11 0 a5.5 5.5 0 1 0 -11 0z" fill="rgba(211, 211, 211, 0.43)"></path><path d="M1177 539L1243 539L1265 561L1309 561L1441 429L1441 275" stroke-width="3.67" stroke="rgba(211, 211, 211, 0.43)"></path><path d="M1171.5 539 a5.5 5.5 0 1 0 11 0 a5.5 5.5 0 1 0 -11 0zM1435.5 275 a5.5 5.5 0 1 0 11 0 a5.5 5.5 0 1 0 -11 0z" fill="rgba(211, 211, 211, 0.43)"></path><path d="M1375 33L957 33" stroke-width="3.67" stroke="rgba(211, 211, 211, 0.43)"></path><path d="M1369.5 33 a5.5 5.5 0 1 0 11 0 a5.5 5.5 0 1 0 -11 0zM951.5 33 a5.5 5.5 0 1 0 11 0 a5.5 5.5 0 1 0 -11 0z" fill="rgba(211, 211, 211, 0.43)"></path><path d="M1045 143L979 77L825 77L759 11L627 11" stroke-width="3.67" stroke="rgba(211, 211, 211, 0.43)"></path><path d="M1039.5 143 a5.5 5.5 0 1 0 11 0 a5.5 5.5 0 1 0 -11 0zM621.5 11 a5.5 5.5 0 1 0 11 0 a5.5 5.5 0 1 0 -11 0z" fill="rgba(211, 211, 211, 0.43)"></path><path d="M319 385L319 363L253 297L253 187L187 121L33 121" stroke-width="3.67" stroke="rgba(211, 211, 211, 0.43)"></path><path d="M313.5 385 a5.5 5.5 0 1 0 11 0 a5.5 5.5 0 1 0 -11 0zM27.5 121 a5.5 5.5 0 1 0 11 0 a5.5 5.5 0 1 0 -11 0z" fill="rgba(211, 211, 211, 0.43)"></path><path d="M1419 319L1419 429L1309 539L1265 539L1199 473L1133 473L1111 451" stroke-width="3.67" stroke="rgba(211, 211, 211, 0.43)"></path><path d="M1413.5 319 a5.5 5.5 0 1 0 11 0 a5.5 5.5 0 1 0 -11 0zM1105.5 451 a5.5 5.5 0 1 0 11 0 a5.5 5.5 0 1 0 -11 0z" fill="rgba(211, 211, 211, 0.43)"></path><path d="M913 253L847 253L803 209L803 143L847 99L979 99L1045 165" stroke-width="3.67" stroke="rgba(211, 211, 211, 0.43)"></path><path d="M907.5 253 a5.5 5.5 0 1 0 11 0 a5.5 5.5 0 1 0 -11 0zM1039.5 165 a5.5 5.5 0 1 0 11 0 a5.5 5.5 0 1 0 -11 0z" fill="rgba(211, 211, 211, 0.43)"></path><path d="M803 77L759 33L495 33" stroke-width="3.67" stroke="rgba(211, 211, 211, 0.43)"></path><path d="M797.5 77 a5.5 5.5 0 1 0 11 0 a5.5 5.5 0 1 0 -11 0zM489.5 33 a5.5 5.5 0 1 0 11 0 a5.5 5.5 0 1 0 -11 0z" fill="rgba(211, 211, 211, 0.43)"></path><path d="M869 561L869 517L539 187L539 143" stroke-width="3.67" stroke="rgba(211, 211, 211, 0.43)"></path><path d="M863.5 561 a5.5 5.5 0 1 0 11 0 a5.5 5.5 0 1 0 -11 0zM533.5 143 a5.5 5.5 0 1 0 11 0 a5.5 5.5 0 1 0 -11 0z" fill="rgba(211, 211, 211, 0.43)"></path><path d="M1111 473L869 473L803 407L803 297" stroke-width="3.67" stroke="rgba(211, 211, 211, 0.43)"></path><path d="M1105.5 473 a5.5 5.5 0 1 0 11 0 a5.5 5.5 0 1 0 -11 0zM797.5 297 a5.5 5.5 0 1 0 11 0 a5.5 5.5 0 1 0 -11 0z" fill="rgba(211, 211, 211, 0.43)"></path><path d="M1177 209L1001 385L825 385" stroke-width="3.67" stroke="rgba(211, 211, 211, 0.43)"></path><path d="M1171.5 209 a5.5 5.5 0 1 0 11 0 a5.5 5.5 0 1 0 -11 0zM819.5 385 a5.5 5.5 0 1 0 11 0 a5.5 5.5 0 1 0 -11 0z" fill="rgba(211, 211, 211, 0.43)"></path><path d="M473 363L407 429L407 495L451 539L561 539L583 561L693 561" stroke-width="3.67" stroke="rgba(211, 211, 211, 0.43)"></path><path d="M467.5 363 a5.5 5.5 0 1 0 11 0 a5.5 5.5 0 1 0 -11 0zM687.5 561 a5.5 5.5 0 1 0 11 0 a5.5 5.5 0 1 0 -11 0z" fill="rgba(211, 211, 211, 0.43)"></path><path d="M759 539L539 319L539 209L451 121" stroke-width="3.67" stroke="rgba(211, 211, 211, 0.43)"></path><path d="M753.5 539 a5.5 5.5 0 1 0 11 0 a5.5 5.5 0 1 0 -11 0zM445.5 121 a5.5 5.5 0 1 0 11 0 a5.5 5.5 0 1 0 -11 0z" fill="rgba(211, 211, 211, 0.43)"></path><path d="M1353 561L1441 473L1441 451" stroke-width="3.67" stroke="rgba(211, 211, 211, 0.43)"></path><path d="M1347.5 561 a5.5 5.5 0 1 0 11 0 a5.5 5.5 0 1 0 -11 0zM1435.5 451 a5.5 5.5 0 1 0 11 0 a5.5 5.5 0 1 0 -11 0z" fill="rgba(211, 211, 211, 0.43)"></path><path d="M847 11L847 55" stroke-width="3.67" stroke="rgba(211, 211, 211, 0.43)"></path><path d="M841.5 11 a5.5 5.5 0 1 0 11 0 a5.5 5.5 0 1 0 -11 0zM841.5 55 a5.5 5.5 0 1 0 11 0 a5.5 5.5 0 1 0 -11 0z" fill="rgba(211, 211, 211, 0.43)"></path><path d="M693 99L649 55L583 55L561 77L561 99L583 121L759 121" stroke-width="3.67" stroke="rgba(211, 211, 211, 0.43)"></path><path d="M687.5 99 a5.5 5.5 0 1 0 11 0 a5.5 5.5 0 1 0 -11 0zM753.5 121 a5.5 5.5 0 1 0 11 0 a5.5 5.5 0 1 0 -11 0z" fill="rgba(211, 211, 211, 0.43)"></path><path d="M847 363L847 275L803 231" stroke-width="3.67" stroke="rgba(211, 211, 211, 0.43)"></path><path d="M841.5 363 a5.5 5.5 0 1 0 11 0 a5.5 5.5 0 1 0 -11 0zM797.5 231 a5.5 5.5 0 1 0 11 0 a5.5 5.5 0 1 0 -11 0z" fill="rgba(211, 211, 211, 0.43)"></path><path d="M1375 297L1353 275L1287 275" stroke-width="3.67" stroke="rgba(211, 211, 211, 0.43)"></path><path d="M1369.5 297 a5.5 5.5 0 1 0 11 0 a5.5 5.5 0 1 0 -11 0zM1281.5 275 a5.5 5.5 0 1 0 11 0 a5.5 5.5 0 1 0 -11 0z" fill="rgba(211, 211, 211, 0.43)"></path><path d="M957 275L869 187L825 187" stroke-width="3.67" stroke="rgba(211, 211, 211, 0.43)"></path><path d="M951.5 275 a5.5 5.5 0 1 0 11 0 a5.5 5.5 0 1 0 -11 0zM819.5 187 a5.5 5.5 0 1 0 11 0 a5.5 5.5 0 1 0 -11 0z" fill="rgba(211, 211, 211, 0.43)"></path><path d="M517 495L495 517L451 517L429 495L429 429L473 385L583 385L693 495" stroke-width="3.67" stroke="rgba(211, 211, 211, 0.43)"></path><path d="M511.5 495 a5.5 5.5 0 1 0 11 0 a5.5 5.5 0 1 0 -11 0zM687.5 495 a5.5 5.5 0 1 0 11 0 a5.5 5.5 0 1 0 -11 0z" fill="rgba(211, 211, 211, 0.43)"></path><path d="M121 539L121 517L143 495L209 495L275 561" stroke-width="3.67" stroke="rgba(211, 211, 211, 0.43)"></path><path d="M115.5 539 a5.5 5.5 0 1 0 11 0 a5.5 5.5 0 1 0 -11 0zM269.5 561 a5.5 5.5 0 1 0 11 0 a5.5 5.5 0 1 0 -11 0z" fill="rgba(211, 211, 211, 0.43)"></path><path d="M297 187L319 165L341 165L363 143L363 99" stroke-width="3.67" stroke="rgba(211, 211, 211, 0.43)"></path><path d="M291.5 187 a5.5 5.5 0 1 0 11 0 a5.5 5.5 0 1 0 -11 0zM357.5 99 a5.5 5.5 0 1 0 11 0 a5.5 5.5 0 1 0 -11 0z" fill="rgba(211, 211, 211, 0.43)"></path><path d="M957 11L1375 11" stroke-width="3.67" stroke="rgba(211, 211, 211, 0.43)"></path><path d="M951.5 11 a5.5 5.5 0 1 0 11 0 a5.5 5.5 0 1 0 -11 0zM1369.5 11 a5.5 5.5 0 1 0 11 0 a5.5 5.5 0 1 0 -11 0z" fill="rgba(211, 211, 211, 0.43)"></path><path d="M165 11L77 99L11 99" stroke-width="3.67" stroke="rgba(211, 211, 211, 0.43)"></path><path d="M159.5 11 a5.5 5.5 0 1 0 11 0 a5.5 5.5 0 1 0 -11 0zM5.5 99 a5.5 5.5 0 1 0 11 0 a5.5 5.5 0 1 0 -11 0z" fill="rgba(211, 211, 211, 0.43)"></path><path d="M385 253L341 297L319 297" stroke-width="3.67" stroke="rgba(211, 211, 211, 0.43)"></path><path d="M379.5 253 a5.5 5.5 0 1 0 11 0 a5.5 5.5 0 1 0 -11 0zM313.5 297 a5.5 5.5 0 1 0 11 0 a5.5 5.5 0 1 0 -11 0z" fill="rgba(211, 211, 211, 0.43)"></path><path d="M1309 495L1243 495L1221 473L1221 407" stroke-width="3.67" stroke="rgba(211, 211, 211, 0.43)"></path><path d="M1303.5 495 a5.5 5.5 0 1 0 11 0 a5.5 5.5 0 1 0 -11 0zM1215.5 407 a5.5 5.5 0 1 0 11 0 a5.5 5.5 0 1 0 -11 0z" fill="rgba(211, 211, 211, 0.43)"></path><path d="M693 253L627 253L561 187L561 165" stroke-width="3.67" stroke="rgba(211, 211, 211, 0.43)"></path><path d="M687.5 253 a5.5 5.5 0 1 0 11 0 a5.5 5.5 0 1 0 -11 0zM555.5 165 a5.5 5.5 0 1 0 11 0 a5.5 5.5 0 1 0 -11 0z" fill="rgba(211, 211, 211, 0.43)"></path><path d="M825 561L715 561L561 407L473 407L451 429L451 473" stroke-width="3.67" stroke="rgba(211, 211, 211, 0.43)"></path><path d="M819.5 561 a5.5 5.5 0 1 0 11 0 a5.5 5.5 0 1 0 -11 0zM445.5 473 a5.5 5.5 0 1 0 11 0 a5.5 5.5 0 1 0 -11 0z" fill="rgba(211, 211, 211, 0.43)"></path><path d="M1221 77L1243 77L1265 55L1441 55" stroke-width="3.67" stroke="rgba(211, 211, 211, 0.43)"></path><path d="M1215.5 77 a5.5 5.5 0 1 0 11 0 a5.5 5.5 0 1 0 -11 0zM1435.5 55 a5.5 5.5 0 1 0 11 0 a5.5 5.5 0 1 0 -11 0z" fill="rgba(211, 211, 211, 0.43)"></path><path d="M1243 55L869 55" stroke-width="3.67" stroke="rgba(211, 211, 211, 0.43)"></path><path d="M1237.5 55 a5.5 5.5 0 1 0 11 0 a5.5 5.5 0 1 0 -11 0zM863.5 55 a5.5 5.5 0 1 0 11 0 a5.5 5.5 0 1 0 -11 0z" fill="rgba(211, 211, 211, 0.43)"></path><path d="M1353 451L1375 451L1397 429L1397 121L1353 77L1331 77" stroke-width="3.67" stroke="rgba(211, 211, 211, 0.43)"></path><path d="M1347.5 451 a5.5 5.5 0 1 0 11 0 a5.5 5.5 0 1 0 -11 0zM1325.5 77 a5.5 5.5 0 1 0 11 0 a5.5 5.5 0 1 0 -11 0z" fill="rgba(211, 211, 211, 0.43)"></path><path d="M1155 275L1177 275L1243 209L1243 99" stroke-width="3.67" stroke="rgba(211, 211, 211, 0.43)"></path><path d="M1149.5 275 a5.5 5.5 0 1 0 11 0 a5.5 5.5 0 1 0 -11 0zM1237.5 99 a5.5 5.5 0 1 0 11 0 a5.5 5.5 0 1 0 -11 0z" fill="rgba(211, 211, 211, 0.43)"></path><path d="M33 385L11 363L11 121" stroke-width="3.67" stroke="rgba(211, 211, 211, 0.43)"></path><path d="M27.5 385 a5.5 5.5 0 1 0 11 0 a5.5 5.5 0 1 0 -11 0zM5.5 121 a5.5 5.5 0 1 0 11 0 a5.5 5.5 0 1 0 -11 0z" fill="rgba(211, 211, 211, 0.43)"></path><path d="M121 429L121 473L55 539L11 539" stroke-width="3.67" stroke="rgba(211, 211, 211, 0.43)"></path><path d="M115.5 429 a5.5 5.5 0 1 0 11 0 a5.5 5.5 0 1 0 -11 0zM5.5 539 a5.5 5.5 0 1 0 11 0 a5.5 5.5 0 1 0 -11 0z" fill="rgba(211, 211, 211, 0.43)"></path><path d="M121 385L143 385L209 451" stroke-width="3.67" stroke="rgba(211, 211, 211, 0.43)"></path><path d="M115.5 385 a5.5 5.5 0 1 0 11 0 a5.5 5.5 0 1 0 -11 0zM203.5 451 a5.5 5.5 0 1 0 11 0 a5.5 5.5 0 1 0 -11 0z" fill="rgba(211, 211, 211, 0.43)"></path><path d="M165 341L165 363L231 429L363 429" stroke-width="3.67" stroke="rgba(211, 211, 211, 0.43)"></path><path d="M159.5 341 a5.5 5.5 0 1 0 11 0 a5.5 5.5 0 1 0 -11 0zM357.5 429 a5.5 5.5 0 1 0 11 0 a5.5 5.5 0 1 0 -11 0z" fill="rgba(211, 211, 211, 0.43)"></path><path d="M495 121L495 143L517 165" stroke-width="3.67" stroke="rgba(211, 211, 211, 0.43)"></path><path d="M489.5 121 a5.5 5.5 0 1 0 11 0 a5.5 5.5 0 1 0 -11 0zM511.5 165 a5.5 5.5 0 1 0 11 0 a5.5 5.5 0 1 0 -11 0z" fill="rgba(211, 211, 211, 0.43)"></path><path d="M1243 231L1243 363" stroke-width="3.67" stroke="rgba(211, 211, 211, 0.43)"></path><path d="M1237.5 231 a5.5 5.5 0 1 0 11 0 a5.5 5.5 0 1 0 -11 0zM1237.5 363 a5.5 5.5 0 1 0 11 0 a5.5 5.5 0 1 0 -11 0z" fill="rgba(211, 211, 211, 0.43)"></path><path d="M847 143L935 143L979 187L1133 187L1221 99" stroke-width="3.67" stroke="rgba(211, 211, 211, 0.43)"></path><path d="M841.5 143 a5.5 5.5 0 1 0 11 0 a5.5 5.5 0 1 0 -11 0zM1215.5 99 a5.5 5.5 0 1 0 11 0 a5.5 5.5 0 1 0 -11 0z" fill="rgba(211, 211, 211, 0.43)"></path><path d="M979 319L979 297L1001 275L1067 275L1155 187L1177 187L1199 209L1221 209" stroke-width="3.67" stroke="rgba(211, 211, 211, 0.43)"></path><path d="M973.5 319 a5.5 5.5 0 1 0 11 0 a5.5 5.5 0 1 0 -11 0zM1215.5 209 a5.5 5.5 0 1 0 11 0 a5.5 5.5 0 1 0 -11 0z" fill="rgba(211, 211, 211, 0.43)"></path><path d="M1023 539L957 539L935 561L891 561" stroke-width="3.67" stroke="rgba(211, 211, 211, 0.43)"></path><path d="M1017.5 539 a5.5 5.5 0 1 0 11 0 a5.5 5.5 0 1 0 -11 0zM885.5 561 a5.5 5.5 0 1 0 11 0 a5.5 5.5 0 1 0 -11 0z" fill="rgba(211, 211, 211, 0.43)"></path><path d="M451 165L451 275L539 363L561 363" stroke-width="3.67" stroke="rgba(211, 211, 211, 0.43)"></path><path d="M445.5 165 a5.5 5.5 0 1 0 11 0 a5.5 5.5 0 1 0 -11 0zM555.5 363 a5.5 5.5 0 1 0 11 0 a5.5 5.5 0 1 0 -11 0z" fill="rgba(211, 211, 211, 0.43)"></path><path d="M1133 341L1133 363L1111 385L1023 385" stroke-width="3.67" stroke="rgba(211, 211, 211, 0.43)"></path><path d="M1127.5 341 a5.5 5.5 0 1 0 11 0 a5.5 5.5 0 1 0 -11 0zM1017.5 385 a5.5 5.5 0 1 0 11 0 a5.5 5.5 0 1 0 -11 0z" fill="rgba(211, 211, 211, 0.43)"></path><path d="M385 187L407 165L407 99" stroke-width="3.67" stroke="rgba(211, 211, 211, 0.43)"></path><path d="M379.5 187 a5.5 5.5 0 1 0 11 0 a5.5 5.5 0 1 0 -11 0zM401.5 99 a5.5 5.5 0 1 0 11 0 a5.5 5.5 0 1 0 -11 0z" fill="rgba(211, 211, 211, 0.43)"></path><path d="M1331 143L1353 121L1375 121" stroke-width="3.67" stroke="rgba(211, 211, 211, 0.43)"></path><path d="M1325.5 143 a5.5 5.5 0 1 0 11 0 a5.5 5.5 0 1 0 -11 0zM1369.5 121 a5.5 5.5 0 1 0 11 0 a5.5 5.5 0 1 0 -11 0z" fill="rgba(211, 211, 211, 0.43)"></path><path d="M935 341L957 363L1001 363L1067 297" stroke-width="3.67" stroke="rgba(211, 211, 211, 0.43)"></path><path d="M929.5 341 a5.5 5.5 0 1 0 11 0 a5.5 5.5 0 1 0 -11 0zM1061.5 297 a5.5 5.5 0 1 0 11 0 a5.5 5.5 0 1 0 -11 0z" fill="rgba(211, 211, 211, 0.43)"></path><path d="M209 341L231 319L231 187L187 143L33 143" stroke-width="3.67" stroke="rgba(211, 211, 211, 0.43)"></path><path d="M203.5 341 a5.5 5.5 0 1 0 11 0 a5.5 5.5 0 1 0 -11 0zM27.5 143 a5.5 5.5 0 1 0 11 0 a5.5 5.5 0 1 0 -11 0z" fill="rgba(211, 211, 211, 0.43)"></path><path d="M1089 99L1067 77L1001 77" stroke-width="3.67" stroke="rgba(211, 211, 211, 0.43)"></path><path d="M1083.5 99 a5.5 5.5 0 1 0 11 0 a5.5 5.5 0 1 0 -11 0zM995.5 77 a5.5 5.5 0 1 0 11 0 a5.5 5.5 0 1 0 -11 0z" fill="rgba(211, 211, 211, 0.43)"></path><path d="M1001 165L979 165L935 121L847 121" stroke-width="3.67" stroke="rgba(211, 211, 211, 0.43)"></path><path d="M995.5 165 a5.5 5.5 0 1 0 11 0 a5.5 5.5 0 1 0 -11 0zM841.5 121 a5.5 5.5 0 1 0 11 0 a5.5 5.5 0 1 0 -11 0z" fill="rgba(211, 211, 211, 0.43)"></path><path d="M1419 187L1419 231L1441 253" stroke-width="3.67" stroke="rgba(211, 211, 211, 0.43)"></path><path d="M1413.5 187 a5.5 5.5 0 1 0 11 0 a5.5 5.5 0 1 0 -11 0zM1435.5 253 a5.5 5.5 0 1 0 11 0 a5.5 5.5 0 1 0 -11 0z" fill="rgba(211, 211, 211, 0.43)"></path><path d="M209 275L143 341" stroke-width="3.67" stroke="rgba(211, 211, 211, 0.43)"></path><path d="M203.5 275 a5.5 5.5 0 1 0 11 0 a5.5 5.5 0 1 0 -11 0zM137.5 341 a5.5 5.5 0 1 0 11 0 a5.5 5.5 0 1 0 -11 0z" fill="rgba(211, 211, 211, 0.43)"></path><path d="M209 99L99 99" stroke-width="3.67" stroke="rgba(211, 211, 211, 0.43)"></path><path d="M203.5 99 a5.5 5.5 0 1 0 11 0 a5.5 5.5 0 1 0 -11 0zM93.5 99 a5.5 5.5 0 1 0 11 0 a5.5 5.5 0 1 0 -11 0z" fill="rgba(211, 211, 211, 0.43)"></path><path d="M957 495L957 517L935 539L891 539" stroke-width="3.67" stroke="rgba(211, 211, 211, 0.43)"></path><path d="M951.5 495 a5.5 5.5 0 1 0 11 0 a5.5 5.5 0 1 0 -11 0zM885.5 539 a5.5 5.5 0 1 0 11 0 a5.5 5.5 0 1 0 -11 0z" fill="rgba(211, 211, 211, 0.43)"></path><path d="M1287 341L1287 297" stroke-width="3.67" stroke="rgba(211, 211, 211, 0.43)"></path><path d="M1281.5 341 a5.5 5.5 0 1 0 11 0 a5.5 5.5 0 1 0 -11 0zM1281.5 297 a5.5 5.5 0 1 0 11 0 a5.5 5.5 0 1 0 -11 0z" fill="rgba(211, 211, 211, 0.43)"></path><path d="M803 517L847 517" stroke-width="3.67" stroke="rgba(211, 211, 211, 0.43)"></path><path d="M797.5 517 a5.5 5.5 0 1 0 11 0 a5.5 5.5 0 1 0 -11 0zM841.5 517 a5.5 5.5 0 1 0 11 0 a5.5 5.5 0 1 0 -11 0z" fill="rgba(211, 211, 211, 0.43)"></path><path d="M1001 253L1001 209" stroke-width="3.67" stroke="rgba(211, 211, 211, 0.43)"></path><path d="M995.5 253 a5.5 5.5 0 1 0 11 0 a5.5 5.5 0 1 0 -11 0zM995.5 209 a5.5 5.5 0 1 0 11 0 a5.5 5.5 0 1 0 -11 0z" fill="rgba(211, 211, 211, 0.43)"></path><path d="M759 341L759 143" stroke-width="3.67" stroke="rgba(211, 211, 211, 0.43)"></path><path d="M753.5 341 a5.5 5.5 0 1 0 11 0 a5.5 5.5 0 1 0 -11 0zM753.5 143 a5.5 5.5 0 1 0 11 0 a5.5 5.5 0 1 0 -11 0z" fill="rgba(211, 211, 211, 0.43)"></path><path d="M473 231L473 165" stroke-width="3.67" stroke="rgba(211, 211, 211, 0.43)"></path><path d="M467.5 231 a5.5 5.5 0 1 0 11 0 a5.5 5.5 0 1 0 -11 0zM467.5 165 a5.5 5.5 0 1 0 11 0 a5.5 5.5 0 1 0 -11 0z" fill="rgba(211, 211, 211, 0.43)"></path><path d="M781 77L759 55L671 55" stroke-width="3.67" stroke="rgba(211, 211, 211, 0.43)"></path><path d="M775.5 77 a5.5 5.5 0 1 0 11 0 a5.5 5.5 0 1 0 -11 0zM665.5 55 a5.5 5.5 0 1 0 11 0 a5.5 5.5 0 1 0 -11 0z" fill="rgba(211, 211, 211, 0.43)"></path><path d="M1111 561L1155 517L1155 495" stroke-width="3.67" stroke="rgba(211, 211, 211, 0.43)"></path><path d="M1105.5 561 a5.5 5.5 0 1 0 11 0 a5.5 5.5 0 1 0 -11 0zM1149.5 495 a5.5 5.5 0 1 0 11 0 a5.5 5.5 0 1 0 -11 0z" fill="rgba(211, 211, 211, 0.43)"></path><path d="M1353 341L1375 363L1375 429" stroke-width="3.67" stroke="rgba(211, 211, 211, 0.43)"></path><path d="M1347.5 341 a5.5 5.5 0 1 0 11 0 a5.5 5.5 0 1 0 -11 0zM1369.5 429 a5.5 5.5 0 1 0 11 0 a5.5 5.5 0 1 0 -11 0z" fill="rgba(211, 211, 211, 0.43)"></path><path d="M605 319L561 319" stroke-width="3.67" stroke="rgba(211, 211, 211, 0.43)"></path><path d="M599.5 319 a5.5 5.5 0 1 0 11 0 a5.5 5.5 0 1 0 -11 0zM555.5 319 a5.5 5.5 0 1 0 11 0 a5.5 5.5 0 1 0 -11 0z" fill="rgba(211, 211, 211, 0.43)"></path><path d="M1287 209L1287 77" stroke-width="3.67" stroke="rgba(211, 211, 211, 0.43)"></path><path d="M1281.5 209 a5.5 5.5 0 1 0 11 0 a5.5 5.5 0 1 0 -11 0zM1281.5 77 a5.5 5.5 0 1 0 11 0 a5.5 5.5 0 1 0 -11 0z" fill="rgba(211, 211, 211, 0.43)"></path><path d="M33 297L33 363L99 429L99 473L55 517L11 517" stroke-width="3.67" stroke="rgba(211, 211, 211, 0.43)"></path><path d="M27.5 297 a5.5 5.5 0 1 0 11 0 a5.5 5.5 0 1 0 -11 0zM5.5 517 a5.5 5.5 0 1 0 11 0 a5.5 5.5 0 1 0 -11 0z" fill="rgba(211, 211, 211, 0.43)"></path><path d="M1199 275L1155 319L1111 319L1067 363L1045 363" stroke-width="3.67" stroke="rgba(211, 211, 211, 0.43)"></path><path d="M1193.5 275 a5.5 5.5 0 1 0 11 0 a5.5 5.5 0 1 0 -11 0zM1039.5 363 a5.5 5.5 0 1 0 11 0 a5.5 5.5 0 1 0 -11 0z" fill="rgba(211, 211, 211, 0.43)"></path><path d="M1265 473L1243 451L1243 407" stroke-width="3.67" stroke="rgba(211, 211, 211, 0.43)"></path><path d="M1259.5 473 a5.5 5.5 0 1 0 11 0 a5.5 5.5 0 1 0 -11 0zM1237.5 407 a5.5 5.5 0 1 0 11 0 a5.5 5.5 0 1 0 -11 0z" fill="rgba(211, 211, 211, 0.43)"></path><path d="M825 539L781 539L737 495L737 429L693 385L627 385L583 341" stroke-width="3.67" stroke="rgba(211, 211, 211, 0.43)"></path><path d="M819.5 539 a5.5 5.5 0 1 0 11 0 a5.5 5.5 0 1 0 -11 0zM577.5 341 a5.5 5.5 0 1 0 11 0 a5.5 5.5 0 1 0 -11 0z" fill="rgba(211, 211, 211, 0.43)"></path><path d="M121 209L209 209" stroke-width="3.67" stroke="rgba(211, 211, 211, 0.43)"></path><path d="M115.5 209 a5.5 5.5 0 1 0 11 0 a5.5 5.5 0 1 0 -11 0zM203.5 209 a5.5 5.5 0 1 0 11 0 a5.5 5.5 0 1 0 -11 0z" fill="rgba(211, 211, 211, 0.43)"></path><path d="M319 451L319 473L363 517" stroke-width="3.67" stroke="rgba(211, 211, 211, 0.43)"></path><path d="M313.5 451 a5.5 5.5 0 1 0 11 0 a5.5 5.5 0 1 0 -11 0zM357.5 517 a5.5 5.5 0 1 0 11 0 a5.5 5.5 0 1 0 -11 0z" fill="rgba(211, 211, 211, 0.43)"></path><path d="M957 451L1089 451L1133 407L1199 407" stroke-width="3.67" stroke="rgba(211, 211, 211, 0.43)"></path><path d="M951.5 451 a5.5 5.5 0 1 0 11 0 a5.5 5.5 0 1 0 -11 0zM1193.5 407 a5.5 5.5 0 1 0 11 0 a5.5 5.5 0 1 0 -11 0z" fill="rgba(211, 211, 211, 0.43)"></path><path d="M143 275L143 231" stroke-width="3.67" stroke="rgba(211, 211, 211, 0.43)"></path><path d="M137.5 275 a5.5 5.5 0 1 0 11 0 a5.5 5.5 0 1 0 -11 0zM137.5 231 a5.5 5.5 0 1 0 11 0 a5.5 5.5 0 1 0 -11 0z" fill="rgba(211, 211, 211, 0.43)"></path><path d="M121 561L165 517L209 517L253 561" stroke-width="3.67" stroke="rgba(211, 211, 211, 0.43)"></path><path d="M115.5 561 a5.5 5.5 0 1 0 11 0 a5.5 5.5 0 1 0 -11 0zM247.5 561 a5.5 5.5 0 1 0 11 0 a5.5 5.5 0 1 0 -11 0z" fill="rgba(211, 211, 211, 0.43)"></path><path d="M1309 385L1353 385" stroke-width="3.67" stroke="rgba(211, 211, 211, 0.43)"></path><path d="M1303.5 385 a5.5 5.5 0 1 0 11 0 a5.5 5.5 0 1 0 -11 0zM1347.5 385 a5.5 5.5 0 1 0 11 0 a5.5 5.5 0 1 0 -11 0z" fill="rgba(211, 211, 211, 0.43)"></path><path d="M583 451L671 539" stroke-width="3.67" stroke="rgba(211, 211, 211, 0.43)"></path><path d="M577.5 451 a5.5 5.5 0 1 0 11 0 a5.5 5.5 0 1 0 -11 0zM665.5 539 a5.5 5.5 0 1 0 11 0 a5.5 5.5 0 1 0 -11 0z" fill="rgba(211, 211, 211, 0.43)"></path><path d="M341 451L341 473L363 495" stroke-width="3.67" stroke="rgba(211, 211, 211, 0.43)"></path><path d="M335.5 451 a5.5 5.5 0 1 0 11 0 a5.5 5.5 0 1 0 -11 0zM357.5 495 a5.5 5.5 0 1 0 11 0 a5.5 5.5 0 1 0 -11 0z" fill="rgba(211, 211, 211, 0.43)"></path><path d="M781 517L803 495L803 473L759 429" stroke-width="3.67" stroke="rgba(211, 211, 211, 0.43)"></path><path d="M775.5 517 a5.5 5.5 0 1 0 11 0 a5.5 5.5 0 1 0 -11 0zM753.5 429 a5.5 5.5 0 1 0 11 0 a5.5 5.5 0 1 0 -11 0z" fill="rgba(211, 211, 211, 0.43)"></path><path d="M605 99L627 77L649 77L671 99" stroke-width="3.67" stroke="rgba(211, 211, 211, 0.43)"></path><path d="M599.5 99 a5.5 5.5 0 1 0 11 0 a5.5 5.5 0 1 0 -11 0zM665.5 99 a5.5 5.5 0 1 0 11 0 a5.5 5.5 0 1 0 -11 0z" fill="rgba(211, 211, 211, 0.43)"></path><path d="M429 275L385 275L341 319" stroke-width="3.67" stroke="rgba(211, 211, 211, 0.43)"></path><path d="M423.5 275 a5.5 5.5 0 1 0 11 0 a5.5 5.5 0 1 0 -11 0zM335.5 319 a5.5 5.5 0 1 0 11 0 a5.5 5.5 0 1 0 -11 0z" fill="rgba(211, 211, 211, 0.43)"></path><path d="M341 407L341 363" stroke-width="3.67" stroke="rgba(211, 211, 211, 0.43)"></path><path d="M335.5 407 a5.5 5.5 0 1 0 11 0 a5.5 5.5 0 1 0 -11 0zM335.5 363 a5.5 5.5 0 1 0 11 0 a5.5 5.5 0 1 0 -11 0z" fill="rgba(211, 211, 211, 0.43)"></path><path d="M55 297L55 363L99 407L143 407L187 451" stroke-width="3.67" stroke="rgba(211, 211, 211, 0.43)"></path><path d="M49.5 297 a5.5 5.5 0 1 0 11 0 a5.5 5.5 0 1 0 -11 0zM181.5 451 a5.5 5.5 0 1 0 11 0 a5.5 5.5 0 1 0 -11 0z" fill="rgba(211, 211, 211, 0.43)"></path><path d="M671 209L605 143" stroke-width="3.67" stroke="rgba(211, 211, 211, 0.43)"></path><path d="M665.5 209 a5.5 5.5 0 1 0 11 0 a5.5 5.5 0 1 0 -11 0zM599.5 143 a5.5 5.5 0 1 0 11 0 a5.5 5.5 0 1 0 -11 0z" fill="rgba(211, 211, 211, 0.43)"></path><path d="M11 33L11 77" stroke-width="3.67" stroke="rgba(211, 211, 211, 0.43)"></path><path d="M5.5 33 a5.5 5.5 0 1 0 11 0 a5.5 5.5 0 1 0 -11 0zM5.5 77 a5.5 5.5 0 1 0 11 0 a5.5 5.5 0 1 0 -11 0z" fill="rgba(211, 211, 211, 0.43)"></path><path d="M253 55L297 11L451 11" stroke-width="3.67" stroke="rgba(211, 211, 211, 0.43)"></path><path d="M247.5 55 a5.5 5.5 0 1 0 11 0 a5.5 5.5 0 1 0 -11 0zM445.5 11 a5.5 5.5 0 1 0 11 0 a5.5 5.5 0 1 0 -11 0z" fill="rgba(211, 211, 211, 0.43)"></path><path d="M979 209L935 165L913 165L891 187" stroke-width="3.67" stroke="rgba(211, 211, 211, 0.43)"></path><path d="M973.5 209 a5.5 5.5 0 1 0 11 0 a5.5 5.5 0 1 0 -11 0zM885.5 187 a5.5 5.5 0 1 0 11 0 a5.5 5.5 0 1 0 -11 0z" fill="rgba(211, 211, 211, 0.43)"></path><path d="M715 297L715 231L737 209L737 143" stroke-width="3.67" stroke="rgba(211, 211, 211, 0.43)"></path><path d="M709.5 297 a5.5 5.5 0 1 0 11 0 a5.5 5.5 0 1 0 -11 0zM731.5 143 a5.5 5.5 0 1 0 11 0 a5.5 5.5 0 1 0 -11 0z" fill="rgba(211, 211, 211, 0.43)"></path><path d="M297 407L231 407L187 363L187 319" stroke-width="3.67" stroke="rgba(211, 211, 211, 0.43)"></path><path d="M291.5 407 a5.5 5.5 0 1 0 11 0 a5.5 5.5 0 1 0 -11 0zM181.5 319 a5.5 5.5 0 1 0 11 0 a5.5 5.5 0 1 0 -11 0z" fill="rgba(211, 211, 211, 0.43)"></path><path d="M1331 187L1375 143" stroke-width="3.67" stroke="rgba(211, 211, 211, 0.43)"></path><path d="M1325.5 187 a5.5 5.5 0 1 0 11 0 a5.5 5.5 0 1 0 -11 0zM1369.5 143 a5.5 5.5 0 1 0 11 0 a5.5 5.5 0 1 0 -11 0z" fill="rgba(211, 211, 211, 0.43)"></path><path d="M913 275L869 275" stroke-width="3.67" stroke="rgba(211, 211, 211, 0.43)"></path><path d="M907.5 275 a5.5 5.5 0 1 0 11 0 a5.5 5.5 0 1 0 -11 0zM863.5 275 a5.5 5.5 0 1 0 11 0 a5.5 5.5 0 1 0 -11 0z" fill="rgba(211, 211, 211, 0.43)"></path><path d="M77 275L77 165" stroke-width="3.67" stroke="rgba(211, 211, 211, 0.43)"></path><path d="M71.5 275 a5.5 5.5 0 1 0 11 0 a5.5 5.5 0 1 0 -11 0zM71.5 165 a5.5 5.5 0 1 0 11 0 a5.5 5.5 0 1 0 -11 0z" fill="rgba(211, 211, 211, 0.43)"></path><path d="M1045 429L1089 429" stroke-width="3.67" stroke="rgba(211, 211, 211, 0.43)"></path><path d="M1039.5 429 a5.5 5.5 0 1 0 11 0 a5.5 5.5 0 1 0 -11 0zM1083.5 429 a5.5 5.5 0 1 0 11 0 a5.5 5.5 0 1 0 -11 0z" fill="rgba(211, 211, 211, 0.43)"></path><path d="M1309 407L1331 429L1331 495" stroke-width="3.67" stroke="rgba(211, 211, 211, 0.43)"></path><path d="M1303.5 407 a5.5 5.5 0 1 0 11 0 a5.5 5.5 0 1 0 -11 0zM1325.5 495 a5.5 5.5 0 1 0 11 0 a5.5 5.5 0 1 0 -11 0z" fill="rgba(211, 211, 211, 0.43)"></path><path d="M979 253L979 231L935 187L913 187" stroke-width="3.67" stroke="rgba(211, 211, 211, 0.43)"></path><path d="M973.5 253 a5.5 5.5 0 1 0 11 0 a5.5 5.5 0 1 0 -11 0zM907.5 187 a5.5 5.5 0 1 0 11 0 a5.5 5.5 0 1 0 -11 0z" fill="rgba(211, 211, 211, 0.43)"></path><path d="M935 209L957 231L957 253" stroke-width="3.67" stroke="rgba(211, 211, 211, 0.43)"></path><path d="M929.5 209 a5.5 5.5 0 1 0 11 0 a5.5 5.5 0 1 0 -11 0zM951.5 253 a5.5 5.5 0 1 0 11 0 a5.5 5.5 0 1 0 -11 0z" fill="rgba(211, 211, 211, 0.43)"></path><path d="M715 187L715 143" stroke-width="3.67" stroke="rgba(211, 211, 211, 0.43)"></path><path d="M709.5 187 a5.5 5.5 0 1 0 11 0 a5.5 5.5 0 1 0 -11 0zM709.5 143 a5.5 5.5 0 1 0 11 0 a5.5 5.5 0 1 0 -11 0z" fill="rgba(211, 211, 211, 0.43)"></path><path d="M253 77L231 55L231 11" stroke-width="3.67" stroke="rgba(211, 211, 211, 0.43)"></path><path d="M247.5 77 a5.5 5.5 0 1 0 11 0 a5.5 5.5 0 1 0 -11 0zM225.5 11 a5.5 5.5 0 1 0 11 0 a5.5 5.5 0 1 0 -11 0z" fill="rgba(211, 211, 211, 0.43)"></path><path d="M913 341L869 297" stroke-width="3.67" stroke="rgba(211, 211, 211, 0.43)"></path><path d="M907.5 341 a5.5 5.5 0 1 0 11 0 a5.5 5.5 0 1 0 -11 0zM863.5 297 a5.5 5.5 0 1 0 11 0 a5.5 5.5 0 1 0 -11 0z" fill="rgba(211, 211, 211, 0.43)"></path><path d="M1419 99L1397 99L1375 77" stroke-width="3.67" stroke="rgba(211, 211, 211, 0.43)"></path><path d="M1413.5 99 a5.5 5.5 0 1 0 11 0 a5.5 5.5 0 1 0 -11 0zM1369.5 77 a5.5 5.5 0 1 0 11 0 a5.5 5.5 0 1 0 -11 0z" fill="rgba(211, 211, 211, 0.43)"></path><path d="M33 495L55 495L77 473L77 429L55 407L11 407" stroke-width="3.67" stroke="rgba(211, 211, 211, 0.43)"></path><path d="M27.5 495 a5.5 5.5 0 1 0 11 0 a5.5 5.5 0 1 0 -11 0zM5.5 407 a5.5 5.5 0 1 0 11 0 a5.5 5.5 0 1 0 -11 0z" fill="rgba(211, 211, 211, 0.43)"></path><path d="M1287 363L1353 363" stroke-width="3.67" stroke="rgba(211, 211, 211, 0.43)"></path><path d="M1281.5 363 a5.5 5.5 0 1 0 11 0 a5.5 5.5 0 1 0 -11 0zM1347.5 363 a5.5 5.5 0 1 0 11 0 a5.5 5.5 0 1 0 -11 0z" fill="rgba(211, 211, 211, 0.43)"></path><path d="M1309 451L1265 451" stroke-width="3.67" stroke="rgba(211, 211, 211, 0.43)"></path><path d="M1303.5 451 a5.5 5.5 0 1 0 11 0 a5.5 5.5 0 1 0 -11 0zM1259.5 451 a5.5 5.5 0 1 0 11 0 a5.5 5.5 0 1 0 -11 0z" fill="rgba(211, 211, 211, 0.43)"></path><path d="M1221 143L1199 143L1177 165" stroke-width="3.67" stroke="rgba(211, 211, 211, 0.43)"></path><path d="M1215.5 143 a5.5 5.5 0 1 0 11 0 a5.5 5.5 0 1 0 -11 0zM1171.5 165 a5.5 5.5 0 1 0 11 0 a5.5 5.5 0 1 0 -11 0z" fill="rgba(211, 211, 211, 0.43)"></path><path d="M1309 209L1375 209" stroke-width="3.67" stroke="rgba(211, 211, 211, 0.43)"></path><path d="M1303.5 209 a5.5 5.5 0 1 0 11 0 a5.5 5.5 0 1 0 -11 0zM1369.5 209 a5.5 5.5 0 1 0 11 0 a5.5 5.5 0 1 0 -11 0z" fill="rgba(211, 211, 211, 0.43)"></path><path d="M869 363L935 363" stroke-width="3.67" stroke="rgba(211, 211, 211, 0.43)"></path><path d="M863.5 363 a5.5 5.5 0 1 0 11 0 a5.5 5.5 0 1 0 -11 0zM929.5 363 a5.5 5.5 0 1 0 11 0 a5.5 5.5 0 1 0 -11 0z" fill="rgba(211, 211, 211, 0.43)"></path><path d="M209 77L209 11" stroke-width="3.67" stroke="rgba(211, 211, 211, 0.43)"></path><path d="M203.5 77 a5.5 5.5 0 1 0 11 0 a5.5 5.5 0 1 0 -11 0zM203.5 11 a5.5 5.5 0 1 0 11 0 a5.5 5.5 0 1 0 -11 0z" fill="rgba(211, 211, 211, 0.43)"></path><path d="M99 253L99 297L77 319L77 363L99 385" stroke-width="3.67" stroke="rgba(211, 211, 211, 0.43)"></path><path d="M93.5 253 a5.5 5.5 0 1 0 11 0 a5.5 5.5 0 1 0 -11 0zM93.5 385 a5.5 5.5 0 1 0 11 0 a5.5 5.5 0 1 0 -11 0z" fill="rgba(211, 211, 211, 0.43)"></path><path d="M869 429L891 451L935 451L957 429L1023 429" stroke-width="3.67" stroke="rgba(211, 211, 211, 0.43)"></path><path d="M863.5 429 a5.5 5.5 0 1 0 11 0 a5.5 5.5 0 1 0 -11 0zM1017.5 429 a5.5 5.5 0 1 0 11 0 a5.5 5.5 0 1 0 -11 0z" fill="rgba(211, 211, 211, 0.43)"></path><path d="M319 231L341 209L429 209" stroke-width="3.67" stroke="rgba(211, 211, 211, 0.43)"></path><path d="M313.5 231 a5.5 5.5 0 1 0 11 0 a5.5 5.5 0 1 0 -11 0zM423.5 209 a5.5 5.5 0 1 0 11 0 a5.5 5.5 0 1 0 -11 0z" fill="rgba(211, 211, 211, 0.43)"></path><path d="M1441 187L1419 165L1419 121L1441 99L1441 77" stroke-width="3.67" stroke="rgba(211, 211, 211, 0.43)"></path><path d="M1435.5 187 a5.5 5.5 0 1 0 11 0 a5.5 5.5 0 1 0 -11 0zM1435.5 77 a5.5 5.5 0 1 0 11 0 a5.5 5.5 0 1 0 -11 0z" fill="rgba(211, 211, 211, 0.43)"></path><path d="M297 385L253 341L231 341L209 363" stroke-width="3.67" stroke="rgba(211, 211, 211, 0.43)"></path><path d="M291.5 385 a5.5 5.5 0 1 0 11 0 a5.5 5.5 0 1 0 -11 0zM203.5 363 a5.5 5.5 0 1 0 11 0 a5.5 5.5 0 1 0 -11 0z" fill="rgba(211, 211, 211, 0.43)"></path><path d="M517 297L473 253" stroke-width="3.67" stroke="rgba(211, 211, 211, 0.43)"></path><path d="M511.5 297 a5.5 5.5 0 1 0 11 0 a5.5 5.5 0 1 0 -11 0zM467.5 253 a5.5 5.5 0 1 0 11 0 a5.5 5.5 0 1 0 -11 0z" fill="rgba(211, 211, 211, 0.43)"></path><path d="M913 33L869 33" stroke-width="3.67" stroke="rgba(211, 211, 211, 0.43)"></path><path d="M907.5 33 a5.5 5.5 0 1 0 11 0 a5.5 5.5 0 1 0 -11 0zM863.5 33 a5.5 5.5 0 1 0 11 0 a5.5 5.5 0 1 0 -11 0z" fill="rgba(211, 211, 211, 0.43)"></path><path d="M1111 143L1089 165L1067 165" stroke-width="3.67" stroke="rgba(211, 211, 211, 0.43)"></path><path d="M1105.5 143 a5.5 5.5 0 1 0 11 0 a5.5 5.5 0 1 0 -11 0zM1061.5 165 a5.5 5.5 0 1 0 11 0 a5.5 5.5 0 1 0 -11 0z" fill="rgba(211, 211, 211, 0.43)"></path><path d="M1309 341L1331 341L1353 319L1375 319" stroke-width="3.67" stroke="rgba(211, 211, 211, 0.43)"></path><path d="M1303.5 341 a5.5 5.5 0 1 0 11 0 a5.5 5.5 0 1 0 -11 0zM1369.5 319 a5.5 5.5 0 1 0 11 0 a5.5 5.5 0 1 0 -11 0z" fill="rgba(211, 211, 211, 0.43)"></path><path d="M583 253L561 275L561 297" stroke-width="3.67" stroke="rgba(211, 211, 211, 0.43)"></path><path d="M577.5 253 a5.5 5.5 0 1 0 11 0 a5.5 5.5 0 1 0 -11 0zM555.5 297 a5.5 5.5 0 1 0 11 0 a5.5 5.5 0 1 0 -11 0z" fill="rgba(211, 211, 211, 0.43)"></path><path d="M121 11L11 11" stroke-width="3.67" stroke="rgba(211, 211, 211, 0.43)"></path><path d="M115.5 11 a5.5 5.5 0 1 0 11 0 a5.5 5.5 0 1 0 -11 0zM5.5 11 a5.5 5.5 0 1 0 11 0 a5.5 5.5 0 1 0 -11 0z" fill="rgba(211, 211, 211, 0.43)"></path><path d="M1441 495L1441 561" stroke-width="3.67" stroke="rgba(211, 211, 211, 0.43)"></path><path d="M1435.5 495 a5.5 5.5 0 1 0 11 0 a5.5 5.5 0 1 0 -11 0zM1435.5 561 a5.5 5.5 0 1 0 11 0 a5.5 5.5 0 1 0 -11 0z" fill="rgba(211, 211, 211, 0.43)"></path><path d="M385 363L385 297" stroke-width="3.67" stroke="rgba(211, 211, 211, 0.43)"></path><path d="M379.5 363 a5.5 5.5 0 1 0 11 0 a5.5 5.5 0 1 0 -11 0zM379.5 297 a5.5 5.5 0 1 0 11 0 a5.5 5.5 0 1 0 -11 0z" fill="rgba(211, 211, 211, 0.43)"></path><path d="M539 473L605 539L649 539" stroke-width="3.67" stroke="rgba(211, 211, 211, 0.43)"></path><path d="M533.5 473 a5.5 5.5 0 1 0 11 0 a5.5 5.5 0 1 0 -11 0zM643.5 539 a5.5 5.5 0 1 0 11 0 a5.5 5.5 0 1 0 -11 0z" fill="rgba(211, 211, 211, 0.43)"></path><path d="M957 341L1001 341" stroke-width="3.67" stroke="rgba(211, 211, 211, 0.43)"></path><path d="M951.5 341 a5.5 5.5 0 1 0 11 0 a5.5 5.5 0 1 0 -11 0zM995.5 341 a5.5 5.5 0 1 0 11 0 a5.5 5.5 0 1 0 -11 0z" fill="rgba(211, 211, 211, 0.43)"></path><path d="M1089 561L1089 495" stroke-width="3.67" stroke="rgba(211, 211, 211, 0.43)"></path><path d="M1083.5 561 a5.5 5.5 0 1 0 11 0 a5.5 5.5 0 1 0 -11 0zM1083.5 495 a5.5 5.5 0 1 0 11 0 a5.5 5.5 0 1 0 -11 0z" fill="rgba(211, 211, 211, 0.43)"></path><path d="M671 165L649 165L627 143" stroke-width="3.67" stroke="rgba(211, 211, 211, 0.43)"></path><path d="M665.5 165 a5.5 5.5 0 1 0 11 0 a5.5 5.5 0 1 0 -11 0zM621.5 143 a5.5 5.5 0 1 0 11 0 a5.5 5.5 0 1 0 -11 0z" fill="rgba(211, 211, 211, 0.43)"></path><path d="M429 363L429 385L407 407" stroke-width="3.67" stroke="rgba(211, 211, 211, 0.43)"></path><path d="M423.5 363 a5.5 5.5 0 1 0 11 0 a5.5 5.5 0 1 0 -11 0zM401.5 407 a5.5 5.5 0 1 0 11 0 a5.5 5.5 0 1 0 -11 0z" fill="rgba(211, 211, 211, 0.43)"></path><path d="M451 55L385 55L363 33L297 33L275 55L275 99L231 143" stroke-width="3.67" stroke="rgba(211, 211, 211, 0.43)"></path><path d="M445.5 55 a5.5 5.5 0 1 0 11 0 a5.5 5.5 0 1 0 -11 0zM225.5 143 a5.5 5.5 0 1 0 11 0 a5.5 5.5 0 1 0 -11 0z" fill="rgba(211, 211, 211, 0.43)"></path><path d="M297 143L341 99" stroke-width="3.67" stroke="rgba(211, 211, 211, 0.43)"></path><path d="M291.5 143 a5.5 5.5 0 1 0 11 0 a5.5 5.5 0 1 0 -11 0zM335.5 99 a5.5 5.5 0 1 0 11 0 a5.5 5.5 0 1 0 -11 0z" fill="rgba(211, 211, 211, 0.43)"></path><path d="M99 341L143 297L165 297" stroke-width="3.67" stroke="rgba(211, 211, 211, 0.43)"></path><path d="M93.5 341 a5.5 5.5 0 1 0 11 0 a5.5 5.5 0 1 0 -11 0zM159.5 297 a5.5 5.5 0 1 0 11 0 a5.5 5.5 0 1 0 -11 0z" fill="rgba(211, 211, 211, 0.43)"></path><path d="M1199 363L1199 297L1221 275L1221 253" stroke-width="3.67" stroke="rgba(211, 211, 211, 0.43)"></path><path d="M1193.5 363 a5.5 5.5 0 1 0 11 0 a5.5 5.5 0 1 0 -11 0zM1215.5 253 a5.5 5.5 0 1 0 11 0 a5.5 5.5 0 1 0 -11 0z" fill="rgba(211, 211, 211, 0.43)"></path><path d="M429 99L495 99" stroke-width="3.67" stroke="rgba(211, 211, 211, 0.43)"></path><path d="M423.5 99 a5.5 5.5 0 1 0 11 0 a5.5 5.5 0 1 0 -11 0zM489.5 99 a5.5 5.5 0 1 0 11 0 a5.5 5.5 0 1 0 -11 0z" fill="rgba(211, 211, 211, 0.43)"></path><path d="M341 253L275 253" stroke-width="3.67" stroke="rgba(211, 211, 211, 0.43)"></path><path d="M335.5 253 a5.5 5.5 0 1 0 11 0 a5.5 5.5 0 1 0 -11 0zM269.5 253 a5.5 5.5 0 1 0 11 0 a5.5 5.5 0 1 0 -11 0z" fill="rgba(211, 211, 211, 0.43)"></path><path d="M99 187L99 231" stroke-width="3.67" stroke="rgba(211, 211, 211, 0.43)"></path><path d="M93.5 187 a5.5 5.5 0 1 0 11 0 a5.5 5.5 0 1 0 -11 0zM93.5 231 a5.5 5.5 0 1 0 11 0 a5.5 5.5 0 1 0 -11 0z" fill="rgba(211, 211, 211, 0.43)"></path><path d="M33 275L33 231L55 209" stroke-width="3.67" stroke="rgba(211, 211, 211, 0.43)"></path><path d="M27.5 275 a5.5 5.5 0 1 0 11 0 a5.5 5.5 0 1 0 -11 0zM49.5 209 a5.5 5.5 0 1 0 11 0 a5.5 5.5 0 1 0 -11 0z" fill="rgba(211, 211, 211, 0.43)"></path><path d="M275 209L275 187L297 165" stroke-width="3.67" stroke="rgba(211, 211, 211, 0.43)"></path><path d="M269.5 209 a5.5 5.5 0 1 0 11 0 a5.5 5.5 0 1 0 -11 0zM291.5 165 a5.5 5.5 0 1 0 11 0 a5.5 5.5 0 1 0 -11 0z" fill="rgba(211, 211, 211, 0.43)"></path><path d="M99 33L99 55L77 77L33 77" stroke-width="3.67" stroke="rgba(211, 211, 211, 0.43)"></path><path d="M93.5 33 a5.5 5.5 0 1 0 11 0 a5.5 5.5 0 1 0 -11 0zM27.5 77 a5.5 5.5 0 1 0 11 0 a5.5 5.5 0 1 0 -11 0z" fill="rgba(211, 211, 211, 0.43)"></path><path d="M715 341L737 319L737 231" stroke-width="3.67" stroke="rgba(211, 211, 211, 0.43)"></path><path d="M709.5 341 a5.5 5.5 0 1 0 11 0 a5.5 5.5 0 1 0 -11 0zM731.5 231 a5.5 5.5 0 1 0 11 0 a5.5 5.5 0 1 0 -11 0z" fill="rgba(211, 211, 211, 0.43)"></path><path d="M1023 561L957 561" stroke-width="3.67" stroke="rgba(211, 211, 211, 0.43)"></path><path d="M1017.5 561 a5.5 5.5 0 1 0 11 0 a5.5 5.5 0 1 0 -11 0zM951.5 561 a5.5 5.5 0 1 0 11 0 a5.5 5.5 0 1 0 -11 0z" fill="rgba(211, 211, 211, 0.43)"></path><path d="M33 209L33 165" stroke-width="3.67" stroke="rgba(211, 211, 211, 0.43)"></path><path d="M27.5 209 a5.5 5.5 0 1 0 11 0 a5.5 5.5 0 1 0 -11 0zM27.5 165 a5.5 5.5 0 1 0 11 0 a5.5 5.5 0 1 0 -11 0z" fill="rgba(211, 211, 211, 0.43)"></path><path d="M143 187L121 165L99 165" stroke-width="3.67" stroke="rgba(211, 211, 211, 0.43)"></path><path d="M137.5 187 a5.5 5.5 0 1 0 11 0 a5.5 5.5 0 1 0 -11 0zM93.5 165 a5.5 5.5 0 1 0 11 0 a5.5 5.5 0 1 0 -11 0z" fill="rgba(211, 211, 211, 0.43)"></path><path d="M1155 99L1155 143L1133 165" stroke-width="3.67" stroke="rgba(211, 211, 211, 0.43)"></path><path d="M1149.5 99 a5.5 5.5 0 1 0 11 0 a5.5 5.5 0 1 0 -11 0zM1127.5 165 a5.5 5.5 0 1 0 11 0 a5.5 5.5 0 1 0 -11 0z" fill="rgba(211, 211, 211, 0.43)"></path><path d="M1331 121L1331 99L1309 77" stroke-width="3.67" stroke="rgba(211, 211, 211, 0.43)"></path><path d="M1325.5 121 a5.5 5.5 0 1 0 11 0 a5.5 5.5 0 1 0 -11 0zM1303.5 77 a5.5 5.5 0 1 0 11 0 a5.5 5.5 0 1 0 -11 0z" fill="rgba(211, 211, 211, 0.43)"></path><path d="M495 473L473 473L451 495" stroke-width="3.67" stroke="rgba(211, 211, 211, 0.43)"></path><path d="M489.5 473 a5.5 5.5 0 1 0 11 0 a5.5 5.5 0 1 0 -11 0zM445.5 495 a5.5 5.5 0 1 0 11 0 a5.5 5.5 0 1 0 -11 0z" fill="rgba(211, 211, 211, 0.43)"></path><path d="M209 121L231 121L253 99" stroke-width="3.67" stroke="rgba(211, 211, 211, 0.43)"></path><path d="M203.5 121 a5.5 5.5 0 1 0 11 0 a5.5 5.5 0 1 0 -11 0zM247.5 99 a5.5 5.5 0 1 0 11 0 a5.5 5.5 0 1 0 -11 0z" fill="rgba(211, 211, 211, 0.43)"></path><path d="M1067 561L1067 495" stroke-width="3.67" stroke="rgba(211, 211, 211, 0.43)"></path><path d="M1061.5 561 a5.5 5.5 0 1 0 11 0 a5.5 5.5 0 1 0 -11 0zM1061.5 495 a5.5 5.5 0 1 0 11 0 a5.5 5.5 0 1 0 -11 0z" fill="rgba(211, 211, 211, 0.43)"></path><path d="M1199 77L1199 99L1177 121" stroke-width="3.67" stroke="rgba(211, 211, 211, 0.43)"></path><path d="M1193.5 77 a5.5 5.5 0 1 0 11 0 a5.5 5.5 0 1 0 -11 0zM1171.5 121 a5.5 5.5 0 1 0 11 0 a5.5 5.5 0 1 0 -11 0z" fill="rgba(211, 211, 211, 0.43)"></path><path d="M627 363L693 363" stroke-width="3.67" stroke="rgba(211, 211, 211, 0.43)"></path><path d="M621.5 363 a5.5 5.5 0 1 0 11 0 a5.5 5.5 0 1 0 -11 0zM687.5 363 a5.5 5.5 0 1 0 11 0 a5.5 5.5 0 1 0 -11 0z" fill="rgba(211, 211, 211, 0.43)"></path><path d="M913 11L869 11" stroke-width="3.67" stroke="rgba(211, 211, 211, 0.43)"></path><path d="M907.5 11 a5.5 5.5 0 1 0 11 0 a5.5 5.5 0 1 0 -11 0zM863.5 11 a5.5 5.5 0 1 0 11 0 a5.5 5.5 0 1 0 -11 0z" fill="rgba(211, 211, 211, 0.43)"></path><path d="M627 297L583 297" stroke-width="3.67" stroke="rgba(211, 211, 211, 0.43)"></path><path d="M621.5 297 a5.5 5.5 0 1 0 11 0 a5.5 5.5 0 1 0 -11 0zM577.5 297 a5.5 5.5 0 1 0 11 0 a5.5 5.5 0 1 0 -11 0z" fill="rgba(211, 211, 211, 0.43)"></path><path d="M825 33L803 33L781 11" stroke-width="3.67" stroke="rgba(211, 211, 211, 0.43)"></path><path d="M819.5 33 a5.5 5.5 0 1 0 11 0 a5.5 5.5 0 1 0 -11 0zM775.5 11 a5.5 5.5 0 1 0 11 0 a5.5 5.5 0 1 0 -11 0z" fill="rgba(211, 211, 211, 0.43)"></path><path d="M1397 561L1397 539L1419 517" stroke-width="3.67" stroke="rgba(211, 211, 211, 0.43)"></path><path d="M1391.5 561 a5.5 5.5 0 1 0 11 0 a5.5 5.5 0 1 0 -11 0zM1413.5 517 a5.5 5.5 0 1 0 11 0 a5.5 5.5 0 1 0 -11 0z" fill="rgba(211, 211, 211, 0.43)"></path><path d="M363 55L319 55" stroke-width="3.67" stroke="rgba(211, 211, 211, 0.43)"></path><path d="M357.5 55 a5.5 5.5 0 1 0 11 0 a5.5 5.5 0 1 0 -11 0zM313.5 55 a5.5 5.5 0 1 0 11 0 a5.5 5.5 0 1 0 -11 0z" fill="rgba(211, 211, 211, 0.43)"></path><path d="M561 429L517 473" stroke-width="3.67" stroke="rgba(211, 211, 211, 0.43)"></path><path d="M555.5 429 a5.5 5.5 0 1 0 11 0 a5.5 5.5 0 1 0 -11 0zM511.5 473 a5.5 5.5 0 1 0 11 0 a5.5 5.5 0 1 0 -11 0z" fill="rgba(211, 211, 211, 0.43)"></path><path d="M715 209L693 187L671 187" stroke-width="3.67" stroke="rgba(211, 211, 211, 0.43)"></path><path d="M709.5 209 a5.5 5.5 0 1 0 11 0 a5.5 5.5 0 1 0 -11 0zM665.5 187 a5.5 5.5 0 1 0 11 0 a5.5 5.5 0 1 0 -11 0z" fill="rgba(211, 211, 211, 0.43)"></path><path d="M451 341L407 341" stroke-width="3.67" stroke="rgba(211, 211, 211, 0.43)"></path><path d="M445.5 341 a5.5 5.5 0 1 0 11 0 a5.5 5.5 0 1 0 -11 0zM401.5 341 a5.5 5.5 0 1 0 11 0 a5.5 5.5 0 1 0 -11 0z" fill="rgba(211, 211, 211, 0.43)"></path><path d="M495 209L517 231L517 275" stroke-width="3.67" stroke="rgba(211, 211, 211, 0.43)"></path><path d="M489.5 209 a5.5 5.5 0 1 0 11 0 a5.5 5.5 0 1 0 -11 0zM511.5 275 a5.5 5.5 0 1 0 11 0 a5.5 5.5 0 1 0 -11 0z" fill="rgba(211, 211, 211, 0.43)"></path><path d="M143 55L187 11" stroke-width="3.67" stroke="rgba(211, 211, 211, 0.43)"></path><path d="M137.5 55 a5.5 5.5 0 1 0 11 0 a5.5 5.5 0 1 0 -11 0zM181.5 11 a5.5 5.5 0 1 0 11 0 a5.5 5.5 0 1 0 -11 0z" fill="rgba(211, 211, 211, 0.43)"></path><path d="M979 517L1023 517" stroke-width="3.67" stroke="rgba(211, 211, 211, 0.43)"></path><path d="M973.5 517 a5.5 5.5 0 1 0 11 0 a5.5 5.5 0 1 0 -11 0zM1017.5 517 a5.5 5.5 0 1 0 11 0 a5.5 5.5 0 1 0 -11 0z" fill="rgba(211, 211, 211, 0.43)"></path><path d="M1111 77L1111 121" stroke-width="3.67" stroke="rgba(211, 211, 211, 0.43)"></path><path d="M1105.5 77 a5.5 5.5 0 1 0 11 0 a5.5 5.5 0 1 0 -11 0zM1105.5 121 a5.5 5.5 0 1 0 11 0 a5.5 5.5 0 1 0 -11 0z" fill="rgba(211, 211, 211, 0.43)"></path><path d="M143 77L187 77" stroke-width="3.67" stroke="rgba(211, 211, 211, 0.43)"></path><path d="M137.5 77 a5.5 5.5 0 1 0 11 0 a5.5 5.5 0 1 0 -11 0zM181.5 77 a5.5 5.5 0 1 0 11 0 a5.5 5.5 0 1 0 -11 0z" fill="rgba(211, 211, 211, 0.43)"></path><path d="M957 319L957 297L935 275" stroke-width="3.67" stroke="rgba(211, 211, 211, 0.43)"></path><path d="M951.5 319 a5.5 5.5 0 1 0 11 0 a5.5 5.5 0 1 0 -11 0zM929.5 275 a5.5 5.5 0 1 0 11 0 a5.5 5.5 0 1 0 -11 0z" fill="rgba(211, 211, 211, 0.43)"></path><path d="M11 451L33 429L55 429" stroke-width="3.67" stroke="rgba(211, 211, 211, 0.43)"></path><path d="M5.5 451 a5.5 5.5 0 1 0 11 0 a5.5 5.5 0 1 0 -11 0zM49.5 429 a5.5 5.5 0 1 0 11 0 a5.5 5.5 0 1 0 -11 0z" fill="rgba(211, 211, 211, 0.43)"></path><path d="M429 319L473 319" stroke-width="3.67" stroke="rgba(211, 211, 211, 0.43)"></path><path d="M423.5 319 a5.5 5.5 0 1 0 11 0 a5.5 5.5 0 1 0 -11 0zM467.5 319 a5.5 5.5 0 1 0 11 0 a5.5 5.5 0 1 0 -11 0z" fill="rgba(211, 211, 211, 0.43)"></path></g></g><defs><mask id="SvgjsMask1002"><rect width="1440" height="560" fill="#ffffff"></rect></mask><mask id="SvgjsMask1003"><rect width="1440" height="560" fill="white"></rect><path d="M866.25 407 a2.75 2.75 0 1 0 5.5 0 a2.75 2.75 0 1 0 -5.5 0zM1284.25 385 a2.75 2.75 0 1 0 5.5 0 a2.75 2.75 0 1 0 -5.5 0z" fill="black"></path><path d="M624.25 187 a2.75 2.75 0 1 0 5.5 0 a2.75 2.75 0 1 0 -5.5 0zM470.25 11 a2.75 2.75 0 1 0 5.5 0 a2.75 2.75 0 1 0 -5.5 0z" fill="black"></path><path d="M118.25 341 a2.75 2.75 0 1 0 5.5 0 a2.75 2.75 0 1 0 -5.5 0zM536.25 561 a2.75 2.75 0 1 0 5.5 0 a2.75 2.75 0 1 0 -5.5 0z" fill="black"></path><path d="M1262.25 77 a2.75 2.75 0 1 0 5.5 0 a2.75 2.75 0 1 0 -5.5 0zM1262.25 363 a2.75 2.75 0 1 0 5.5 0 a2.75 2.75 0 1 0 -5.5 0z" fill="black"></path><path d="M294.25 561 a2.75 2.75 0 1 0 5.5 0 a2.75 2.75 0 1 0 -5.5 0zM8.25 561 a2.75 2.75 0 1 0 5.5 0 a2.75 2.75 0 1 0 -5.5 0z" fill="black"></path><path d="M294.25 517 a2.75 2.75 0 1 0 5.5 0 a2.75 2.75 0 1 0 -5.5 0zM228.25 473 a2.75 2.75 0 1 0 5.5 0 a2.75 2.75 0 1 0 -5.5 0z" fill="black"></path><path d="M250.25 165 a2.75 2.75 0 1 0 5.5 0 a2.75 2.75 0 1 0 -5.5 0zM646.25 231 a2.75 2.75 0 1 0 5.5 0 a2.75 2.75 0 1 0 -5.5 0z" fill="black"></path><path d="M294.25 275 a2.75 2.75 0 1 0 5.5 0 a2.75 2.75 0 1 0 -5.5 0zM382.25 539 a2.75 2.75 0 1 0 5.5 0 a2.75 2.75 0 1 0 -5.5 0z" fill="black"></path><path d="M778.25 99 a2.75 2.75 0 1 0 5.5 0 a2.75 2.75 0 1 0 -5.5 0zM888.25 517 a2.75 2.75 0 1 0 5.5 0 a2.75 2.75 0 1 0 -5.5 0z" fill="black"></path><path d="M338.25 187 a2.75 2.75 0 1 0 5.5 0 a2.75 2.75 0 1 0 -5.5 0zM382.25 99 a2.75 2.75 0 1 0 5.5 0 a2.75 2.75 0 1 0 -5.5 0z" fill="black"></path><path d="M1174.25 539 a2.75 2.75 0 1 0 5.5 0 a2.75 2.75 0 1 0 -5.5 0zM1438.25 275 a2.75 2.75 0 1 0 5.5 0 a2.75 2.75 0 1 0 -5.5 0z" fill="black"></path><path d="M1372.25 33 a2.75 2.75 0 1 0 5.5 0 a2.75 2.75 0 1 0 -5.5 0zM954.25 33 a2.75 2.75 0 1 0 5.5 0 a2.75 2.75 0 1 0 -5.5 0z" fill="black"></path><path d="M1042.25 143 a2.75 2.75 0 1 0 5.5 0 a2.75 2.75 0 1 0 -5.5 0zM624.25 11 a2.75 2.75 0 1 0 5.5 0 a2.75 2.75 0 1 0 -5.5 0z" fill="black"></path><path d="M316.25 385 a2.75 2.75 0 1 0 5.5 0 a2.75 2.75 0 1 0 -5.5 0zM30.25 121 a2.75 2.75 0 1 0 5.5 0 a2.75 2.75 0 1 0 -5.5 0z" fill="black"></path><path d="M1416.25 319 a2.75 2.75 0 1 0 5.5 0 a2.75 2.75 0 1 0 -5.5 0zM1108.25 451 a2.75 2.75 0 1 0 5.5 0 a2.75 2.75 0 1 0 -5.5 0z" fill="black"></path><path d="M910.25 253 a2.75 2.75 0 1 0 5.5 0 a2.75 2.75 0 1 0 -5.5 0zM1042.25 165 a2.75 2.75 0 1 0 5.5 0 a2.75 2.75 0 1 0 -5.5 0z" fill="black"></path><path d="M800.25 77 a2.75 2.75 0 1 0 5.5 0 a2.75 2.75 0 1 0 -5.5 0zM492.25 33 a2.75 2.75 0 1 0 5.5 0 a2.75 2.75 0 1 0 -5.5 0z" fill="black"></path><path d="M866.25 561 a2.75 2.75 0 1 0 5.5 0 a2.75 2.75 0 1 0 -5.5 0zM536.25 143 a2.75 2.75 0 1 0 5.5 0 a2.75 2.75 0 1 0 -5.5 0z" fill="black"></path><path d="M1108.25 473 a2.75 2.75 0 1 0 5.5 0 a2.75 2.75 0 1 0 -5.5 0zM800.25 297 a2.75 2.75 0 1 0 5.5 0 a2.75 2.75 0 1 0 -5.5 0z" fill="black"></path><path d="M1174.25 209 a2.75 2.75 0 1 0 5.5 0 a2.75 2.75 0 1 0 -5.5 0zM822.25 385 a2.75 2.75 0 1 0 5.5 0 a2.75 2.75 0 1 0 -5.5 0z" fill="black"></path><path d="M470.25 363 a2.75 2.75 0 1 0 5.5 0 a2.75 2.75 0 1 0 -5.5 0zM690.25 561 a2.75 2.75 0 1 0 5.5 0 a2.75 2.75 0 1 0 -5.5 0z" fill="black"></path><path d="M756.25 539 a2.75 2.75 0 1 0 5.5 0 a2.75 2.75 0 1 0 -5.5 0zM448.25 121 a2.75 2.75 0 1 0 5.5 0 a2.75 2.75 0 1 0 -5.5 0z" fill="black"></path><path d="M1350.25 561 a2.75 2.75 0 1 0 5.5 0 a2.75 2.75 0 1 0 -5.5 0zM1438.25 451 a2.75 2.75 0 1 0 5.5 0 a2.75 2.75 0 1 0 -5.5 0z" fill="black"></path><path d="M844.25 11 a2.75 2.75 0 1 0 5.5 0 a2.75 2.75 0 1 0 -5.5 0zM844.25 55 a2.75 2.75 0 1 0 5.5 0 a2.75 2.75 0 1 0 -5.5 0z" fill="black"></path><path d="M690.25 99 a2.75 2.75 0 1 0 5.5 0 a2.75 2.75 0 1 0 -5.5 0zM756.25 121 a2.75 2.75 0 1 0 5.5 0 a2.75 2.75 0 1 0 -5.5 0z" fill="black"></path><path d="M844.25 363 a2.75 2.75 0 1 0 5.5 0 a2.75 2.75 0 1 0 -5.5 0zM800.25 231 a2.75 2.75 0 1 0 5.5 0 a2.75 2.75 0 1 0 -5.5 0z" fill="black"></path><path d="M1372.25 297 a2.75 2.75 0 1 0 5.5 0 a2.75 2.75 0 1 0 -5.5 0zM1284.25 275 a2.75 2.75 0 1 0 5.5 0 a2.75 2.75 0 1 0 -5.5 0z" fill="black"></path><path d="M954.25 275 a2.75 2.75 0 1 0 5.5 0 a2.75 2.75 0 1 0 -5.5 0zM822.25 187 a2.75 2.75 0 1 0 5.5 0 a2.75 2.75 0 1 0 -5.5 0z" fill="black"></path><path d="M514.25 495 a2.75 2.75 0 1 0 5.5 0 a2.75 2.75 0 1 0 -5.5 0zM690.25 495 a2.75 2.75 0 1 0 5.5 0 a2.75 2.75 0 1 0 -5.5 0z" fill="black"></path><path d="M118.25 539 a2.75 2.75 0 1 0 5.5 0 a2.75 2.75 0 1 0 -5.5 0zM272.25 561 a2.75 2.75 0 1 0 5.5 0 a2.75 2.75 0 1 0 -5.5 0z" fill="black"></path><path d="M294.25 187 a2.75 2.75 0 1 0 5.5 0 a2.75 2.75 0 1 0 -5.5 0zM360.25 99 a2.75 2.75 0 1 0 5.5 0 a2.75 2.75 0 1 0 -5.5 0z" fill="black"></path><path d="M954.25 11 a2.75 2.75 0 1 0 5.5 0 a2.75 2.75 0 1 0 -5.5 0zM1372.25 11 a2.75 2.75 0 1 0 5.5 0 a2.75 2.75 0 1 0 -5.5 0z" fill="black"></path><path d="M162.25 11 a2.75 2.75 0 1 0 5.5 0 a2.75 2.75 0 1 0 -5.5 0zM8.25 99 a2.75 2.75 0 1 0 5.5 0 a2.75 2.75 0 1 0 -5.5 0z" fill="black"></path><path d="M382.25 253 a2.75 2.75 0 1 0 5.5 0 a2.75 2.75 0 1 0 -5.5 0zM316.25 297 a2.75 2.75 0 1 0 5.5 0 a2.75 2.75 0 1 0 -5.5 0z" fill="black"></path><path d="M1306.25 495 a2.75 2.75 0 1 0 5.5 0 a2.75 2.75 0 1 0 -5.5 0zM1218.25 407 a2.75 2.75 0 1 0 5.5 0 a2.75 2.75 0 1 0 -5.5 0z" fill="black"></path><path d="M690.25 253 a2.75 2.75 0 1 0 5.5 0 a2.75 2.75 0 1 0 -5.5 0zM558.25 165 a2.75 2.75 0 1 0 5.5 0 a2.75 2.75 0 1 0 -5.5 0z" fill="black"></path><path d="M822.25 561 a2.75 2.75 0 1 0 5.5 0 a2.75 2.75 0 1 0 -5.5 0zM448.25 473 a2.75 2.75 0 1 0 5.5 0 a2.75 2.75 0 1 0 -5.5 0z" fill="black"></path><path d="M1218.25 77 a2.75 2.75 0 1 0 5.5 0 a2.75 2.75 0 1 0 -5.5 0zM1438.25 55 a2.75 2.75 0 1 0 5.5 0 a2.75 2.75 0 1 0 -5.5 0z" fill="black"></path><path d="M1240.25 55 a2.75 2.75 0 1 0 5.5 0 a2.75 2.75 0 1 0 -5.5 0zM866.25 55 a2.75 2.75 0 1 0 5.5 0 a2.75 2.75 0 1 0 -5.5 0z" fill="black"></path><path d="M1350.25 451 a2.75 2.75 0 1 0 5.5 0 a2.75 2.75 0 1 0 -5.5 0zM1328.25 77 a2.75 2.75 0 1 0 5.5 0 a2.75 2.75 0 1 0 -5.5 0z" fill="black"></path><path d="M1152.25 275 a2.75 2.75 0 1 0 5.5 0 a2.75 2.75 0 1 0 -5.5 0zM1240.25 99 a2.75 2.75 0 1 0 5.5 0 a2.75 2.75 0 1 0 -5.5 0z" fill="black"></path><path d="M30.25 385 a2.75 2.75 0 1 0 5.5 0 a2.75 2.75 0 1 0 -5.5 0zM8.25 121 a2.75 2.75 0 1 0 5.5 0 a2.75 2.75 0 1 0 -5.5 0z" fill="black"></path><path d="M118.25 429 a2.75 2.75 0 1 0 5.5 0 a2.75 2.75 0 1 0 -5.5 0zM8.25 539 a2.75 2.75 0 1 0 5.5 0 a2.75 2.75 0 1 0 -5.5 0z" fill="black"></path><path d="M118.25 385 a2.75 2.75 0 1 0 5.5 0 a2.75 2.75 0 1 0 -5.5 0zM206.25 451 a2.75 2.75 0 1 0 5.5 0 a2.75 2.75 0 1 0 -5.5 0z" fill="black"></path><path d="M162.25 341 a2.75 2.75 0 1 0 5.5 0 a2.75 2.75 0 1 0 -5.5 0zM360.25 429 a2.75 2.75 0 1 0 5.5 0 a2.75 2.75 0 1 0 -5.5 0z" fill="black"></path><path d="M492.25 121 a2.75 2.75 0 1 0 5.5 0 a2.75 2.75 0 1 0 -5.5 0zM514.25 165 a2.75 2.75 0 1 0 5.5 0 a2.75 2.75 0 1 0 -5.5 0z" fill="black"></path><path d="M1240.25 231 a2.75 2.75 0 1 0 5.5 0 a2.75 2.75 0 1 0 -5.5 0zM1240.25 363 a2.75 2.75 0 1 0 5.5 0 a2.75 2.75 0 1 0 -5.5 0z" fill="black"></path><path d="M844.25 143 a2.75 2.75 0 1 0 5.5 0 a2.75 2.75 0 1 0 -5.5 0zM1218.25 99 a2.75 2.75 0 1 0 5.5 0 a2.75 2.75 0 1 0 -5.5 0z" fill="black"></path><path d="M976.25 319 a2.75 2.75 0 1 0 5.5 0 a2.75 2.75 0 1 0 -5.5 0zM1218.25 209 a2.75 2.75 0 1 0 5.5 0 a2.75 2.75 0 1 0 -5.5 0z" fill="black"></path><path d="M1020.25 539 a2.75 2.75 0 1 0 5.5 0 a2.75 2.75 0 1 0 -5.5 0zM888.25 561 a2.75 2.75 0 1 0 5.5 0 a2.75 2.75 0 1 0 -5.5 0z" fill="black"></path><path d="M448.25 165 a2.75 2.75 0 1 0 5.5 0 a2.75 2.75 0 1 0 -5.5 0zM558.25 363 a2.75 2.75 0 1 0 5.5 0 a2.75 2.75 0 1 0 -5.5 0z" fill="black"></path><path d="M1130.25 341 a2.75 2.75 0 1 0 5.5 0 a2.75 2.75 0 1 0 -5.5 0zM1020.25 385 a2.75 2.75 0 1 0 5.5 0 a2.75 2.75 0 1 0 -5.5 0z" fill="black"></path><path d="M382.25 187 a2.75 2.75 0 1 0 5.5 0 a2.75 2.75 0 1 0 -5.5 0zM404.25 99 a2.75 2.75 0 1 0 5.5 0 a2.75 2.75 0 1 0 -5.5 0z" fill="black"></path><path d="M1328.25 143 a2.75 2.75 0 1 0 5.5 0 a2.75 2.75 0 1 0 -5.5 0zM1372.25 121 a2.75 2.75 0 1 0 5.5 0 a2.75 2.75 0 1 0 -5.5 0z" fill="black"></path><path d="M932.25 341 a2.75 2.75 0 1 0 5.5 0 a2.75 2.75 0 1 0 -5.5 0zM1064.25 297 a2.75 2.75 0 1 0 5.5 0 a2.75 2.75 0 1 0 -5.5 0z" fill="black"></path><path d="M206.25 341 a2.75 2.75 0 1 0 5.5 0 a2.75 2.75 0 1 0 -5.5 0zM30.25 143 a2.75 2.75 0 1 0 5.5 0 a2.75 2.75 0 1 0 -5.5 0z" fill="black"></path><path d="M1086.25 99 a2.75 2.75 0 1 0 5.5 0 a2.75 2.75 0 1 0 -5.5 0zM998.25 77 a2.75 2.75 0 1 0 5.5 0 a2.75 2.75 0 1 0 -5.5 0z" fill="black"></path><path d="M998.25 165 a2.75 2.75 0 1 0 5.5 0 a2.75 2.75 0 1 0 -5.5 0zM844.25 121 a2.75 2.75 0 1 0 5.5 0 a2.75 2.75 0 1 0 -5.5 0z" fill="black"></path><path d="M1416.25 187 a2.75 2.75 0 1 0 5.5 0 a2.75 2.75 0 1 0 -5.5 0zM1438.25 253 a2.75 2.75 0 1 0 5.5 0 a2.75 2.75 0 1 0 -5.5 0z" fill="black"></path><path d="M206.25 275 a2.75 2.75 0 1 0 5.5 0 a2.75 2.75 0 1 0 -5.5 0zM140.25 341 a2.75 2.75 0 1 0 5.5 0 a2.75 2.75 0 1 0 -5.5 0z" fill="black"></path><path d="M206.25 99 a2.75 2.75 0 1 0 5.5 0 a2.75 2.75 0 1 0 -5.5 0zM96.25 99 a2.75 2.75 0 1 0 5.5 0 a2.75 2.75 0 1 0 -5.5 0z" fill="black"></path><path d="M954.25 495 a2.75 2.75 0 1 0 5.5 0 a2.75 2.75 0 1 0 -5.5 0zM888.25 539 a2.75 2.75 0 1 0 5.5 0 a2.75 2.75 0 1 0 -5.5 0z" fill="black"></path><path d="M1284.25 341 a2.75 2.75 0 1 0 5.5 0 a2.75 2.75 0 1 0 -5.5 0zM1284.25 297 a2.75 2.75 0 1 0 5.5 0 a2.75 2.75 0 1 0 -5.5 0z" fill="black"></path><path d="M800.25 517 a2.75 2.75 0 1 0 5.5 0 a2.75 2.75 0 1 0 -5.5 0zM844.25 517 a2.75 2.75 0 1 0 5.5 0 a2.75 2.75 0 1 0 -5.5 0z" fill="black"></path><path d="M998.25 253 a2.75 2.75 0 1 0 5.5 0 a2.75 2.75 0 1 0 -5.5 0zM998.25 209 a2.75 2.75 0 1 0 5.5 0 a2.75 2.75 0 1 0 -5.5 0z" fill="black"></path><path d="M756.25 341 a2.75 2.75 0 1 0 5.5 0 a2.75 2.75 0 1 0 -5.5 0zM756.25 143 a2.75 2.75 0 1 0 5.5 0 a2.75 2.75 0 1 0 -5.5 0z" fill="black"></path><path d="M470.25 231 a2.75 2.75 0 1 0 5.5 0 a2.75 2.75 0 1 0 -5.5 0zM470.25 165 a2.75 2.75 0 1 0 5.5 0 a2.75 2.75 0 1 0 -5.5 0z" fill="black"></path><path d="M778.25 77 a2.75 2.75 0 1 0 5.5 0 a2.75 2.75 0 1 0 -5.5 0zM668.25 55 a2.75 2.75 0 1 0 5.5 0 a2.75 2.75 0 1 0 -5.5 0z" fill="black"></path><path d="M1108.25 561 a2.75 2.75 0 1 0 5.5 0 a2.75 2.75 0 1 0 -5.5 0zM1152.25 495 a2.75 2.75 0 1 0 5.5 0 a2.75 2.75 0 1 0 -5.5 0z" fill="black"></path><path d="M1350.25 341 a2.75 2.75 0 1 0 5.5 0 a2.75 2.75 0 1 0 -5.5 0zM1372.25 429 a2.75 2.75 0 1 0 5.5 0 a2.75 2.75 0 1 0 -5.5 0z" fill="black"></path><path d="M602.25 319 a2.75 2.75 0 1 0 5.5 0 a2.75 2.75 0 1 0 -5.5 0zM558.25 319 a2.75 2.75 0 1 0 5.5 0 a2.75 2.75 0 1 0 -5.5 0z" fill="black"></path><path d="M1284.25 209 a2.75 2.75 0 1 0 5.5 0 a2.75 2.75 0 1 0 -5.5 0zM1284.25 77 a2.75 2.75 0 1 0 5.5 0 a2.75 2.75 0 1 0 -5.5 0z" fill="black"></path><path d="M30.25 297 a2.75 2.75 0 1 0 5.5 0 a2.75 2.75 0 1 0 -5.5 0zM8.25 517 a2.75 2.75 0 1 0 5.5 0 a2.75 2.75 0 1 0 -5.5 0z" fill="black"></path><path d="M1196.25 275 a2.75 2.75 0 1 0 5.5 0 a2.75 2.75 0 1 0 -5.5 0zM1042.25 363 a2.75 2.75 0 1 0 5.5 0 a2.75 2.75 0 1 0 -5.5 0z" fill="black"></path><path d="M1262.25 473 a2.75 2.75 0 1 0 5.5 0 a2.75 2.75 0 1 0 -5.5 0zM1240.25 407 a2.75 2.75 0 1 0 5.5 0 a2.75 2.75 0 1 0 -5.5 0z" fill="black"></path><path d="M822.25 539 a2.75 2.75 0 1 0 5.5 0 a2.75 2.75 0 1 0 -5.5 0zM580.25 341 a2.75 2.75 0 1 0 5.5 0 a2.75 2.75 0 1 0 -5.5 0z" fill="black"></path><path d="M118.25 209 a2.75 2.75 0 1 0 5.5 0 a2.75 2.75 0 1 0 -5.5 0zM206.25 209 a2.75 2.75 0 1 0 5.5 0 a2.75 2.75 0 1 0 -5.5 0z" fill="black"></path><path d="M316.25 451 a2.75 2.75 0 1 0 5.5 0 a2.75 2.75 0 1 0 -5.5 0zM360.25 517 a2.75 2.75 0 1 0 5.5 0 a2.75 2.75 0 1 0 -5.5 0z" fill="black"></path><path d="M954.25 451 a2.75 2.75 0 1 0 5.5 0 a2.75 2.75 0 1 0 -5.5 0zM1196.25 407 a2.75 2.75 0 1 0 5.5 0 a2.75 2.75 0 1 0 -5.5 0z" fill="black"></path><path d="M140.25 275 a2.75 2.75 0 1 0 5.5 0 a2.75 2.75 0 1 0 -5.5 0zM140.25 231 a2.75 2.75 0 1 0 5.5 0 a2.75 2.75 0 1 0 -5.5 0z" fill="black"></path><path d="M118.25 561 a2.75 2.75 0 1 0 5.5 0 a2.75 2.75 0 1 0 -5.5 0zM250.25 561 a2.75 2.75 0 1 0 5.5 0 a2.75 2.75 0 1 0 -5.5 0z" fill="black"></path><path d="M1306.25 385 a2.75 2.75 0 1 0 5.5 0 a2.75 2.75 0 1 0 -5.5 0zM1350.25 385 a2.75 2.75 0 1 0 5.5 0 a2.75 2.75 0 1 0 -5.5 0z" fill="black"></path><path d="M580.25 451 a2.75 2.75 0 1 0 5.5 0 a2.75 2.75 0 1 0 -5.5 0zM668.25 539 a2.75 2.75 0 1 0 5.5 0 a2.75 2.75 0 1 0 -5.5 0z" fill="black"></path><path d="M338.25 451 a2.75 2.75 0 1 0 5.5 0 a2.75 2.75 0 1 0 -5.5 0zM360.25 495 a2.75 2.75 0 1 0 5.5 0 a2.75 2.75 0 1 0 -5.5 0z" fill="black"></path><path d="M778.25 517 a2.75 2.75 0 1 0 5.5 0 a2.75 2.75 0 1 0 -5.5 0zM756.25 429 a2.75 2.75 0 1 0 5.5 0 a2.75 2.75 0 1 0 -5.5 0z" fill="black"></path><path d="M602.25 99 a2.75 2.75 0 1 0 5.5 0 a2.75 2.75 0 1 0 -5.5 0zM668.25 99 a2.75 2.75 0 1 0 5.5 0 a2.75 2.75 0 1 0 -5.5 0z" fill="black"></path><path d="M426.25 275 a2.75 2.75 0 1 0 5.5 0 a2.75 2.75 0 1 0 -5.5 0zM338.25 319 a2.75 2.75 0 1 0 5.5 0 a2.75 2.75 0 1 0 -5.5 0z" fill="black"></path><path d="M338.25 407 a2.75 2.75 0 1 0 5.5 0 a2.75 2.75 0 1 0 -5.5 0zM338.25 363 a2.75 2.75 0 1 0 5.5 0 a2.75 2.75 0 1 0 -5.5 0z" fill="black"></path><path d="M52.25 297 a2.75 2.75 0 1 0 5.5 0 a2.75 2.75 0 1 0 -5.5 0zM184.25 451 a2.75 2.75 0 1 0 5.5 0 a2.75 2.75 0 1 0 -5.5 0z" fill="black"></path><path d="M668.25 209 a2.75 2.75 0 1 0 5.5 0 a2.75 2.75 0 1 0 -5.5 0zM602.25 143 a2.75 2.75 0 1 0 5.5 0 a2.75 2.75 0 1 0 -5.5 0z" fill="black"></path><path d="M8.25 33 a2.75 2.75 0 1 0 5.5 0 a2.75 2.75 0 1 0 -5.5 0zM8.25 77 a2.75 2.75 0 1 0 5.5 0 a2.75 2.75 0 1 0 -5.5 0z" fill="black"></path><path d="M250.25 55 a2.75 2.75 0 1 0 5.5 0 a2.75 2.75 0 1 0 -5.5 0zM448.25 11 a2.75 2.75 0 1 0 5.5 0 a2.75 2.75 0 1 0 -5.5 0z" fill="black"></path><path d="M976.25 209 a2.75 2.75 0 1 0 5.5 0 a2.75 2.75 0 1 0 -5.5 0zM888.25 187 a2.75 2.75 0 1 0 5.5 0 a2.75 2.75 0 1 0 -5.5 0z" fill="black"></path><path d="M712.25 297 a2.75 2.75 0 1 0 5.5 0 a2.75 2.75 0 1 0 -5.5 0zM734.25 143 a2.75 2.75 0 1 0 5.5 0 a2.75 2.75 0 1 0 -5.5 0z" fill="black"></path><path d="M294.25 407 a2.75 2.75 0 1 0 5.5 0 a2.75 2.75 0 1 0 -5.5 0zM184.25 319 a2.75 2.75 0 1 0 5.5 0 a2.75 2.75 0 1 0 -5.5 0z" fill="black"></path><path d="M1328.25 187 a2.75 2.75 0 1 0 5.5 0 a2.75 2.75 0 1 0 -5.5 0zM1372.25 143 a2.75 2.75 0 1 0 5.5 0 a2.75 2.75 0 1 0 -5.5 0z" fill="black"></path><path d="M910.25 275 a2.75 2.75 0 1 0 5.5 0 a2.75 2.75 0 1 0 -5.5 0zM866.25 275 a2.75 2.75 0 1 0 5.5 0 a2.75 2.75 0 1 0 -5.5 0z" fill="black"></path><path d="M74.25 275 a2.75 2.75 0 1 0 5.5 0 a2.75 2.75 0 1 0 -5.5 0zM74.25 165 a2.75 2.75 0 1 0 5.5 0 a2.75 2.75 0 1 0 -5.5 0z" fill="black"></path><path d="M1042.25 429 a2.75 2.75 0 1 0 5.5 0 a2.75 2.75 0 1 0 -5.5 0zM1086.25 429 a2.75 2.75 0 1 0 5.5 0 a2.75 2.75 0 1 0 -5.5 0z" fill="black"></path><path d="M1306.25 407 a2.75 2.75 0 1 0 5.5 0 a2.75 2.75 0 1 0 -5.5 0zM1328.25 495 a2.75 2.75 0 1 0 5.5 0 a2.75 2.75 0 1 0 -5.5 0z" fill="black"></path><path d="M976.25 253 a2.75 2.75 0 1 0 5.5 0 a2.75 2.75 0 1 0 -5.5 0zM910.25 187 a2.75 2.75 0 1 0 5.5 0 a2.75 2.75 0 1 0 -5.5 0z" fill="black"></path><path d="M932.25 209 a2.75 2.75 0 1 0 5.5 0 a2.75 2.75 0 1 0 -5.5 0zM954.25 253 a2.75 2.75 0 1 0 5.5 0 a2.75 2.75 0 1 0 -5.5 0z" fill="black"></path><path d="M712.25 187 a2.75 2.75 0 1 0 5.5 0 a2.75 2.75 0 1 0 -5.5 0zM712.25 143 a2.75 2.75 0 1 0 5.5 0 a2.75 2.75 0 1 0 -5.5 0z" fill="black"></path><path d="M250.25 77 a2.75 2.75 0 1 0 5.5 0 a2.75 2.75 0 1 0 -5.5 0zM228.25 11 a2.75 2.75 0 1 0 5.5 0 a2.75 2.75 0 1 0 -5.5 0z" fill="black"></path><path d="M910.25 341 a2.75 2.75 0 1 0 5.5 0 a2.75 2.75 0 1 0 -5.5 0zM866.25 297 a2.75 2.75 0 1 0 5.5 0 a2.75 2.75 0 1 0 -5.5 0z" fill="black"></path><path d="M1416.25 99 a2.75 2.75 0 1 0 5.5 0 a2.75 2.75 0 1 0 -5.5 0zM1372.25 77 a2.75 2.75 0 1 0 5.5 0 a2.75 2.75 0 1 0 -5.5 0z" fill="black"></path><path d="M30.25 495 a2.75 2.75 0 1 0 5.5 0 a2.75 2.75 0 1 0 -5.5 0zM8.25 407 a2.75 2.75 0 1 0 5.5 0 a2.75 2.75 0 1 0 -5.5 0z" fill="black"></path><path d="M1284.25 363 a2.75 2.75 0 1 0 5.5 0 a2.75 2.75 0 1 0 -5.5 0zM1350.25 363 a2.75 2.75 0 1 0 5.5 0 a2.75 2.75 0 1 0 -5.5 0z" fill="black"></path><path d="M1306.25 451 a2.75 2.75 0 1 0 5.5 0 a2.75 2.75 0 1 0 -5.5 0zM1262.25 451 a2.75 2.75 0 1 0 5.5 0 a2.75 2.75 0 1 0 -5.5 0z" fill="black"></path><path d="M1218.25 143 a2.75 2.75 0 1 0 5.5 0 a2.75 2.75 0 1 0 -5.5 0zM1174.25 165 a2.75 2.75 0 1 0 5.5 0 a2.75 2.75 0 1 0 -5.5 0z" fill="black"></path><path d="M1306.25 209 a2.75 2.75 0 1 0 5.5 0 a2.75 2.75 0 1 0 -5.5 0zM1372.25 209 a2.75 2.75 0 1 0 5.5 0 a2.75 2.75 0 1 0 -5.5 0z" fill="black"></path><path d="M866.25 363 a2.75 2.75 0 1 0 5.5 0 a2.75 2.75 0 1 0 -5.5 0zM932.25 363 a2.75 2.75 0 1 0 5.5 0 a2.75 2.75 0 1 0 -5.5 0z" fill="black"></path><path d="M206.25 77 a2.75 2.75 0 1 0 5.5 0 a2.75 2.75 0 1 0 -5.5 0zM206.25 11 a2.75 2.75 0 1 0 5.5 0 a2.75 2.75 0 1 0 -5.5 0z" fill="black"></path><path d="M96.25 253 a2.75 2.75 0 1 0 5.5 0 a2.75 2.75 0 1 0 -5.5 0zM96.25 385 a2.75 2.75 0 1 0 5.5 0 a2.75 2.75 0 1 0 -5.5 0z" fill="black"></path><path d="M866.25 429 a2.75 2.75 0 1 0 5.5 0 a2.75 2.75 0 1 0 -5.5 0zM1020.25 429 a2.75 2.75 0 1 0 5.5 0 a2.75 2.75 0 1 0 -5.5 0z" fill="black"></path><path d="M316.25 231 a2.75 2.75 0 1 0 5.5 0 a2.75 2.75 0 1 0 -5.5 0zM426.25 209 a2.75 2.75 0 1 0 5.5 0 a2.75 2.75 0 1 0 -5.5 0z" fill="black"></path><path d="M1438.25 187 a2.75 2.75 0 1 0 5.5 0 a2.75 2.75 0 1 0 -5.5 0zM1438.25 77 a2.75 2.75 0 1 0 5.5 0 a2.75 2.75 0 1 0 -5.5 0z" fill="black"></path><path d="M294.25 385 a2.75 2.75 0 1 0 5.5 0 a2.75 2.75 0 1 0 -5.5 0zM206.25 363 a2.75 2.75 0 1 0 5.5 0 a2.75 2.75 0 1 0 -5.5 0z" fill="black"></path><path d="M514.25 297 a2.75 2.75 0 1 0 5.5 0 a2.75 2.75 0 1 0 -5.5 0zM470.25 253 a2.75 2.75 0 1 0 5.5 0 a2.75 2.75 0 1 0 -5.5 0z" fill="black"></path><path d="M910.25 33 a2.75 2.75 0 1 0 5.5 0 a2.75 2.75 0 1 0 -5.5 0zM866.25 33 a2.75 2.75 0 1 0 5.5 0 a2.75 2.75 0 1 0 -5.5 0z" fill="black"></path><path d="M1108.25 143 a2.75 2.75 0 1 0 5.5 0 a2.75 2.75 0 1 0 -5.5 0zM1064.25 165 a2.75 2.75 0 1 0 5.5 0 a2.75 2.75 0 1 0 -5.5 0z" fill="black"></path><path d="M1306.25 341 a2.75 2.75 0 1 0 5.5 0 a2.75 2.75 0 1 0 -5.5 0zM1372.25 319 a2.75 2.75 0 1 0 5.5 0 a2.75 2.75 0 1 0 -5.5 0z" fill="black"></path><path d="M580.25 253 a2.75 2.75 0 1 0 5.5 0 a2.75 2.75 0 1 0 -5.5 0zM558.25 297 a2.75 2.75 0 1 0 5.5 0 a2.75 2.75 0 1 0 -5.5 0z" fill="black"></path><path d="M118.25 11 a2.75 2.75 0 1 0 5.5 0 a2.75 2.75 0 1 0 -5.5 0zM8.25 11 a2.75 2.75 0 1 0 5.5 0 a2.75 2.75 0 1 0 -5.5 0z" fill="black"></path><path d="M1438.25 495 a2.75 2.75 0 1 0 5.5 0 a2.75 2.75 0 1 0 -5.5 0zM1438.25 561 a2.75 2.75 0 1 0 5.5 0 a2.75 2.75 0 1 0 -5.5 0z" fill="black"></path><path d="M382.25 363 a2.75 2.75 0 1 0 5.5 0 a2.75 2.75 0 1 0 -5.5 0zM382.25 297 a2.75 2.75 0 1 0 5.5 0 a2.75 2.75 0 1 0 -5.5 0z" fill="black"></path><path d="M536.25 473 a2.75 2.75 0 1 0 5.5 0 a2.75 2.75 0 1 0 -5.5 0zM646.25 539 a2.75 2.75 0 1 0 5.5 0 a2.75 2.75 0 1 0 -5.5 0z" fill="black"></path><path d="M954.25 341 a2.75 2.75 0 1 0 5.5 0 a2.75 2.75 0 1 0 -5.5 0zM998.25 341 a2.75 2.75 0 1 0 5.5 0 a2.75 2.75 0 1 0 -5.5 0z" fill="black"></path><path d="M1086.25 561 a2.75 2.75 0 1 0 5.5 0 a2.75 2.75 0 1 0 -5.5 0zM1086.25 495 a2.75 2.75 0 1 0 5.5 0 a2.75 2.75 0 1 0 -5.5 0z" fill="black"></path><path d="M668.25 165 a2.75 2.75 0 1 0 5.5 0 a2.75 2.75 0 1 0 -5.5 0zM624.25 143 a2.75 2.75 0 1 0 5.5 0 a2.75 2.75 0 1 0 -5.5 0z" fill="black"></path><path d="M426.25 363 a2.75 2.75 0 1 0 5.5 0 a2.75 2.75 0 1 0 -5.5 0zM404.25 407 a2.75 2.75 0 1 0 5.5 0 a2.75 2.75 0 1 0 -5.5 0z" fill="black"></path><path d="M448.25 55 a2.75 2.75 0 1 0 5.5 0 a2.75 2.75 0 1 0 -5.5 0zM228.25 143 a2.75 2.75 0 1 0 5.5 0 a2.75 2.75 0 1 0 -5.5 0z" fill="black"></path><path d="M294.25 143 a2.75 2.75 0 1 0 5.5 0 a2.75 2.75 0 1 0 -5.5 0zM338.25 99 a2.75 2.75 0 1 0 5.5 0 a2.75 2.75 0 1 0 -5.5 0z" fill="black"></path><path d="M96.25 341 a2.75 2.75 0 1 0 5.5 0 a2.75 2.75 0 1 0 -5.5 0zM162.25 297 a2.75 2.75 0 1 0 5.5 0 a2.75 2.75 0 1 0 -5.5 0z" fill="black"></path><path d="M1196.25 363 a2.75 2.75 0 1 0 5.5 0 a2.75 2.75 0 1 0 -5.5 0zM1218.25 253 a2.75 2.75 0 1 0 5.5 0 a2.75 2.75 0 1 0 -5.5 0z" fill="black"></path><path d="M426.25 99 a2.75 2.75 0 1 0 5.5 0 a2.75 2.75 0 1 0 -5.5 0zM492.25 99 a2.75 2.75 0 1 0 5.5 0 a2.75 2.75 0 1 0 -5.5 0z" fill="black"></path><path d="M338.25 253 a2.75 2.75 0 1 0 5.5 0 a2.75 2.75 0 1 0 -5.5 0zM272.25 253 a2.75 2.75 0 1 0 5.5 0 a2.75 2.75 0 1 0 -5.5 0z" fill="black"></path><path d="M96.25 187 a2.75 2.75 0 1 0 5.5 0 a2.75 2.75 0 1 0 -5.5 0zM96.25 231 a2.75 2.75 0 1 0 5.5 0 a2.75 2.75 0 1 0 -5.5 0z" fill="black"></path><path d="M30.25 275 a2.75 2.75 0 1 0 5.5 0 a2.75 2.75 0 1 0 -5.5 0zM52.25 209 a2.75 2.75 0 1 0 5.5 0 a2.75 2.75 0 1 0 -5.5 0z" fill="black"></path><path d="M272.25 209 a2.75 2.75 0 1 0 5.5 0 a2.75 2.75 0 1 0 -5.5 0zM294.25 165 a2.75 2.75 0 1 0 5.5 0 a2.75 2.75 0 1 0 -5.5 0z" fill="black"></path><path d="M96.25 33 a2.75 2.75 0 1 0 5.5 0 a2.75 2.75 0 1 0 -5.5 0zM30.25 77 a2.75 2.75 0 1 0 5.5 0 a2.75 2.75 0 1 0 -5.5 0z" fill="black"></path><path d="M712.25 341 a2.75 2.75 0 1 0 5.5 0 a2.75 2.75 0 1 0 -5.5 0zM734.25 231 a2.75 2.75 0 1 0 5.5 0 a2.75 2.75 0 1 0 -5.5 0z" fill="black"></path><path d="M1020.25 561 a2.75 2.75 0 1 0 5.5 0 a2.75 2.75 0 1 0 -5.5 0zM954.25 561 a2.75 2.75 0 1 0 5.5 0 a2.75 2.75 0 1 0 -5.5 0z" fill="black"></path><path d="M30.25 209 a2.75 2.75 0 1 0 5.5 0 a2.75 2.75 0 1 0 -5.5 0zM30.25 165 a2.75 2.75 0 1 0 5.5 0 a2.75 2.75 0 1 0 -5.5 0z" fill="black"></path><path d="M140.25 187 a2.75 2.75 0 1 0 5.5 0 a2.75 2.75 0 1 0 -5.5 0zM96.25 165 a2.75 2.75 0 1 0 5.5 0 a2.75 2.75 0 1 0 -5.5 0z" fill="black"></path><path d="M1152.25 99 a2.75 2.75 0 1 0 5.5 0 a2.75 2.75 0 1 0 -5.5 0zM1130.25 165 a2.75 2.75 0 1 0 5.5 0 a2.75 2.75 0 1 0 -5.5 0z" fill="black"></path><path d="M1328.25 121 a2.75 2.75 0 1 0 5.5 0 a2.75 2.75 0 1 0 -5.5 0zM1306.25 77 a2.75 2.75 0 1 0 5.5 0 a2.75 2.75 0 1 0 -5.5 0z" fill="black"></path><path d="M492.25 473 a2.75 2.75 0 1 0 5.5 0 a2.75 2.75 0 1 0 -5.5 0zM448.25 495 a2.75 2.75 0 1 0 5.5 0 a2.75 2.75 0 1 0 -5.5 0z" fill="black"></path><path d="M206.25 121 a2.75 2.75 0 1 0 5.5 0 a2.75 2.75 0 1 0 -5.5 0zM250.25 99 a2.75 2.75 0 1 0 5.5 0 a2.75 2.75 0 1 0 -5.5 0z" fill="black"></path><path d="M1064.25 561 a2.75 2.75 0 1 0 5.5 0 a2.75 2.75 0 1 0 -5.5 0zM1064.25 495 a2.75 2.75 0 1 0 5.5 0 a2.75 2.75 0 1 0 -5.5 0z" fill="black"></path><path d="M1196.25 77 a2.75 2.75 0 1 0 5.5 0 a2.75 2.75 0 1 0 -5.5 0zM1174.25 121 a2.75 2.75 0 1 0 5.5 0 a2.75 2.75 0 1 0 -5.5 0z" fill="black"></path><path d="M624.25 363 a2.75 2.75 0 1 0 5.5 0 a2.75 2.75 0 1 0 -5.5 0zM690.25 363 a2.75 2.75 0 1 0 5.5 0 a2.75 2.75 0 1 0 -5.5 0z" fill="black"></path><path d="M910.25 11 a2.75 2.75 0 1 0 5.5 0 a2.75 2.75 0 1 0 -5.5 0zM866.25 11 a2.75 2.75 0 1 0 5.5 0 a2.75 2.75 0 1 0 -5.5 0z" fill="black"></path><path d="M624.25 297 a2.75 2.75 0 1 0 5.5 0 a2.75 2.75 0 1 0 -5.5 0zM580.25 297 a2.75 2.75 0 1 0 5.5 0 a2.75 2.75 0 1 0 -5.5 0z" fill="black"></path><path d="M822.25 33 a2.75 2.75 0 1 0 5.5 0 a2.75 2.75 0 1 0 -5.5 0zM778.25 11 a2.75 2.75 0 1 0 5.5 0 a2.75 2.75 0 1 0 -5.5 0z" fill="black"></path><path d="M1394.25 561 a2.75 2.75 0 1 0 5.5 0 a2.75 2.75 0 1 0 -5.5 0zM1416.25 517 a2.75 2.75 0 1 0 5.5 0 a2.75 2.75 0 1 0 -5.5 0z" fill="black"></path><path d="M360.25 55 a2.75 2.75 0 1 0 5.5 0 a2.75 2.75 0 1 0 -5.5 0zM316.25 55 a2.75 2.75 0 1 0 5.5 0 a2.75 2.75 0 1 0 -5.5 0z" fill="black"></path><path d="M558.25 429 a2.75 2.75 0 1 0 5.5 0 a2.75 2.75 0 1 0 -5.5 0zM514.25 473 a2.75 2.75 0 1 0 5.5 0 a2.75 2.75 0 1 0 -5.5 0z" fill="black"></path><path d="M712.25 209 a2.75 2.75 0 1 0 5.5 0 a2.75 2.75 0 1 0 -5.5 0zM668.25 187 a2.75 2.75 0 1 0 5.5 0 a2.75 2.75 0 1 0 -5.5 0z" fill="black"></path><path d="M448.25 341 a2.75 2.75 0 1 0 5.5 0 a2.75 2.75 0 1 0 -5.5 0zM404.25 341 a2.75 2.75 0 1 0 5.5 0 a2.75 2.75 0 1 0 -5.5 0z" fill="black"></path><path d="M492.25 209 a2.75 2.75 0 1 0 5.5 0 a2.75 2.75 0 1 0 -5.5 0zM514.25 275 a2.75 2.75 0 1 0 5.5 0 a2.75 2.75 0 1 0 -5.5 0z" fill="black"></path><path d="M140.25 55 a2.75 2.75 0 1 0 5.5 0 a2.75 2.75 0 1 0 -5.5 0zM184.25 11 a2.75 2.75 0 1 0 5.5 0 a2.75 2.75 0 1 0 -5.5 0z" fill="black"></path><path d="M976.25 517 a2.75 2.75 0 1 0 5.5 0 a2.75 2.75 0 1 0 -5.5 0zM1020.25 517 a2.75 2.75 0 1 0 5.5 0 a2.75 2.75 0 1 0 -5.5 0z" fill="black"></path><path d="M1108.25 77 a2.75 2.75 0 1 0 5.5 0 a2.75 2.75 0 1 0 -5.5 0zM1108.25 121 a2.75 2.75 0 1 0 5.5 0 a2.75 2.75 0 1 0 -5.5 0z" fill="black"></path><path d="M140.25 77 a2.75 2.75 0 1 0 5.5 0 a2.75 2.75 0 1 0 -5.5 0zM184.25 77 a2.75 2.75 0 1 0 5.5 0 a2.75 2.75 0 1 0 -5.5 0z" fill="black"></path><path d="M954.25 319 a2.75 2.75 0 1 0 5.5 0 a2.75 2.75 0 1 0 -5.5 0zM932.25 275 a2.75 2.75 0 1 0 5.5 0 a2.75 2.75 0 1 0 -5.5 0z" fill="black"></path><path d="M8.25 451 a2.75 2.75 0 1 0 5.5 0 a2.75 2.75 0 1 0 -5.5 0zM52.25 429 a2.75 2.75 0 1 0 5.5 0 a2.75 2.75 0 1 0 -5.5 0z" fill="black"></path><path d="M426.25 319 a2.75 2.75 0 1 0 5.5 0 a2.75 2.75 0 1 0 -5.5 0zM470.25 319 a2.75 2.75 0 1 0 5.5 0 a2.75 2.75 0 1 0 -5.5 0z" fill="black"></path></mask></defs></svg>