<svg xmlns="http://www.w3.org/2000/svg" version="1.1" xmlns:xlink="http://www.w3.org/1999/xlink" xmlns:svgjs="http://svgjs.com/svgjs" width="1440" height="1440" preserveAspectRatio="none" viewBox="0 0 1440 1440"><g mask="url(&quot;#SvgjsMask1049&quot;)" fill="none"><rect width="1440" height="1440" x="0" y="0" fill="rgba(39, 42, 49, 1)"></rect><use xlink:href="#SvgjsSymbol1056" x="0" y="0"></use><use xlink:href="#SvgjsSymbol1056" x="0" y="720"></use><use xlink:href="#SvgjsSymbol1056" x="720" y="0"></use><use xlink:href="#SvgjsSymbol1056" x="720" y="720"></use></g><defs><mask id="SvgjsMask1049"><rect width="1440" height="1440" fill="#ffffff"></rect></mask><path d="M-1 0 a1 1 0 1 0 2 0 a1 1 0 1 0 -2 0z" id="SvgjsPath1053"></path><path d="M-3 0 a3 3 0 1 0 6 0 a3 3 0 1 0 -6 0z" id="SvgjsPath1051"></path><path d="M-5 0 a5 5 0 1 0 10 0 a5 5 0 1 0 -10 0z" id="SvgjsPath1055"></path><path d="M2 -2 L-2 2z" id="SvgjsPath1050"></path><path d="M6 -6 L-6 6z" id="SvgjsPath1052"></path><path d="M30 -30 L-30 30z" id="SvgjsPath1054"></path></defs><symbol id="SvgjsSymbol1056"><use xlink:href="#SvgjsPath1050" x="30" y="30" stroke="rgba(0, 0, 0, 1)"></use><use xlink:href="#SvgjsPath1051" x="30" y="90" stroke="rgba(0, 0, 0, 1)"></use><use xlink:href="#SvgjsPath1052" x="30" y="150" stroke="rgba(0, 0, 0, 1)"></use><use xlink:href="#SvgjsPath1050" x="30" y="210" stroke="rgba(0, 0, 0, 1)"></use><use xlink:href="#SvgjsPath1053" x="30" y="270" stroke="rgba(0, 0, 0, 1)"></use><use xlink:href="#SvgjsPath1054" x="30" y="330" stroke="rgba(0, 0, 0, 1)" stroke-width="3"></use><use xlink:href="#SvgjsPath1052" x="30" y="390" stroke="rgba(0, 0, 0, 1)"></use><use xlink:href="#SvgjsPath1052" x="30" y="450" stroke="rgba(0, 0, 0, 1)"></use><use xlink:href="#SvgjsPath1052" x="30" y="510" stroke="rgba(0, 0, 0, 1)"></use><use xlink:href="#SvgjsPath1052" x="30" y="570" stroke="rgba(0, 0, 0, 1)"></use><use xlink:href="#SvgjsPath1052" x="30" y="630" stroke="rgba(0, 0, 0, 1)"></use><use xlink:href="#SvgjsPath1050" x="30" y="690" stroke="rgba(0, 0, 0, 1)"></use><use xlink:href="#SvgjsPath1052" x="90" y="30" stroke="rgba(0, 0, 0, 1)"></use><use xlink:href="#SvgjsPath1055" x="90" y="90" stroke="rgba(0, 0, 0, 1)"></use><use xlink:href="#SvgjsPath1055" x="90" y="150" stroke="rgba(0, 0, 0, 1)"></use><use xlink:href="#SvgjsPath1055" x="90" y="210" stroke="rgba(0, 0, 0, 1)"></use><use xlink:href="#SvgjsPath1050" x="90" y="270" stroke="rgba(0, 0, 0, 1)"></use><use xlink:href="#SvgjsPath1054" x="90" y="330" stroke="rgba(0, 0, 0, 1)" stroke-width="3"></use><use xlink:href="#SvgjsPath1053" x="90" y="390" stroke="rgba(0, 0, 0, 1)"></use><use xlink:href="#SvgjsPath1055" x="90" y="450" stroke="rgba(0, 0, 0, 1)"></use><use xlink:href="#SvgjsPath1052" x="90" y="510" stroke="rgba(0, 0, 0, 1)"></use><use xlink:href="#SvgjsPath1052" x="90" y="570" stroke="rgba(0, 0, 0, 1)"></use><use xlink:href="#SvgjsPath1055" x="90" y="630" stroke="rgba(0, 0, 0, 1)"></use><use xlink:href="#SvgjsPath1053" x="90" y="690" stroke="rgba(0, 0, 0, 1)"></use><use xlink:href="#SvgjsPath1053" x="150" y="30" stroke="rgba(0, 0, 0, 1)"></use><use xlink:href="#SvgjsPath1053" x="150" y="90" stroke="rgba(0, 0, 0, 1)"></use><use xlink:href="#SvgjsPath1050" x="150" y="150" stroke="rgba(0, 0, 0, 1)"></use><use xlink:href="#SvgjsPath1051" x="150" y="210" stroke="rgba(0, 0, 0, 1)"></use><use xlink:href="#SvgjsPath1052" x="150" y="270" stroke="rgba(0, 0, 0, 1)"></use><use xlink:href="#SvgjsPath1052" x="150" y="330" stroke="rgba(0, 0, 0, 1)"></use><use xlink:href="#SvgjsPath1053" x="150" y="390" stroke="rgba(0, 0, 0, 1)"></use><use xlink:href="#SvgjsPath1051" x="150" y="450" stroke="rgba(0, 0, 0, 1)"></use><use xlink:href="#SvgjsPath1052" x="150" y="510" stroke="rgba(0, 0, 0, 1)"></use><use xlink:href="#SvgjsPath1052" x="150" y="570" stroke="rgba(0, 0, 0, 1)"></use><use xlink:href="#SvgjsPath1055" x="150" y="630" stroke="rgba(0, 0, 0, 1)"></use><use xlink:href="#SvgjsPath1050" x="150" y="690" stroke="rgba(0, 0, 0, 1)"></use><use xlink:href="#SvgjsPath1055" x="210" y="30" stroke="rgba(0, 0, 0, 1)"></use><use xlink:href="#SvgjsPath1050" x="210" y="90" stroke="rgba(0, 0, 0, 1)"></use><use xlink:href="#SvgjsPath1055" x="210" y="150" stroke="rgba(0, 0, 0, 1)"></use><use xlink:href="#SvgjsPath1055" x="210" y="210" stroke="rgba(0, 0, 0, 1)"></use><use xlink:href="#SvgjsPath1052" x="210" y="270" stroke="rgba(0, 0, 0, 1)"></use><use xlink:href="#SvgjsPath1053" x="210" y="330" stroke="rgba(0, 0, 0, 1)"></use><use xlink:href="#SvgjsPath1051" x="210" y="390" stroke="rgba(0, 0, 0, 1)"></use><use xlink:href="#SvgjsPath1051" x="210" y="450" stroke="rgba(0, 0, 0, 1)"></use><use xlink:href="#SvgjsPath1055" x="210" y="510" stroke="rgba(0, 0, 0, 1)"></use><use xlink:href="#SvgjsPath1050" x="210" y="570" stroke="rgba(0, 0, 0, 1)"></use><use xlink:href="#SvgjsPath1051" x="210" y="630" stroke="rgba(0, 0, 0, 1)"></use><use xlink:href="#SvgjsPath1052" x="210" y="690" stroke="rgba(0, 0, 0, 1)"></use><use xlink:href="#SvgjsPath1055" x="270" y="30" stroke="rgba(0, 0, 0, 1)"></use><use xlink:href="#SvgjsPath1051" x="270" y="90" stroke="rgba(0, 0, 0, 1)"></use><use xlink:href="#SvgjsPath1055" x="270" y="150" stroke="rgba(0, 0, 0, 1)"></use><use xlink:href="#SvgjsPath1055" x="270" y="210" stroke="rgba(0, 0, 0, 1)"></use><use xlink:href="#SvgjsPath1054" x="270" y="270" stroke="rgba(0, 0, 0, 1)" stroke-width="3"></use><use xlink:href="#SvgjsPath1054" x="270" y="330" stroke="rgba(0, 0, 0, 1)" stroke-width="3"></use><use xlink:href="#SvgjsPath1050" x="270" y="390" stroke="rgba(0, 0, 0, 1)"></use><use xlink:href="#SvgjsPath1051" x="270" y="450" stroke="rgba(0, 0, 0, 1)"></use><use xlink:href="#SvgjsPath1055" x="270" y="510" stroke="rgba(0, 0, 0, 1)"></use><use xlink:href="#SvgjsPath1050" x="270" y="570" stroke="rgba(0, 0, 0, 1)"></use><use xlink:href="#SvgjsPath1055" x="270" y="630" stroke="rgba(0, 0, 0, 1)"></use><use xlink:href="#SvgjsPath1052" x="270" y="690" stroke="rgba(0, 0, 0, 1)"></use><use xlink:href="#SvgjsPath1055" x="330" y="30" stroke="rgba(0, 0, 0, 1)"></use><use xlink:href="#SvgjsPath1055" x="330" y="90" stroke="rgba(0, 0, 0, 1)"></use><use xlink:href="#SvgjsPath1052" x="330" y="150" stroke="rgba(0, 0, 0, 1)"></use><use xlink:href="#SvgjsPath1052" x="330" y="210" stroke="rgba(0, 0, 0, 1)"></use><use xlink:href="#SvgjsPath1052" x="330" y="270" stroke="rgba(0, 0, 0, 1)"></use><use xlink:href="#SvgjsPath1055" x="330" y="330" stroke="rgba(0, 0, 0, 1)"></use><use xlink:href="#SvgjsPath1054" x="330" y="390" stroke="rgba(0, 0, 0, 1)" stroke-width="3"></use><use xlink:href="#SvgjsPath1053" x="330" y="450" stroke="rgba(0, 0, 0, 1)"></use><use xlink:href="#SvgjsPath1051" x="330" y="510" stroke="rgba(0, 0, 0, 1)"></use><use xlink:href="#SvgjsPath1052" x="330" y="570" stroke="rgba(0, 0, 0, 1)"></use><use xlink:href="#SvgjsPath1050" x="330" y="630" stroke="rgba(0, 0, 0, 1)"></use><use xlink:href="#SvgjsPath1050" x="330" y="690" stroke="rgba(0, 0, 0, 1)"></use><use xlink:href="#SvgjsPath1055" x="390" y="30" stroke="rgba(0, 0, 0, 1)"></use><use xlink:href="#SvgjsPath1050" x="390" y="90" stroke="rgba(0, 0, 0, 1)"></use><use xlink:href="#SvgjsPath1055" x="390" y="150" stroke="rgba(0, 0, 0, 1)"></use><use xlink:href="#SvgjsPath1052" x="390" y="210" stroke="rgba(0, 0, 0, 1)"></use><use xlink:href="#SvgjsPath1052" x="390" y="270" stroke="rgba(0, 0, 0, 1)"></use><use xlink:href="#SvgjsPath1052" x="390" y="330" stroke="rgba(0, 0, 0, 1)"></use><use xlink:href="#SvgjsPath1052" x="390" y="390" stroke="rgba(0, 0, 0, 1)"></use><use xlink:href="#SvgjsPath1052" x="390" y="450" stroke="rgba(0, 0, 0, 1)"></use><use xlink:href="#SvgjsPath1054" x="390" y="510" stroke="rgba(0, 0, 0, 1)" stroke-width="3"></use><use xlink:href="#SvgjsPath1052" x="390" y="570" stroke="rgba(0, 0, 0, 1)"></use><use xlink:href="#SvgjsPath1052" x="390" y="630" stroke="rgba(0, 0, 0, 1)"></use><use xlink:href="#SvgjsPath1055" x="390" y="690" stroke="rgba(0, 0, 0, 1)"></use><use xlink:href="#SvgjsPath1053" x="450" y="30" stroke="rgba(0, 0, 0, 1)"></use><use xlink:href="#SvgjsPath1051" x="450" y="90" stroke="rgba(0, 0, 0, 1)"></use><use xlink:href="#SvgjsPath1052" x="450" y="150" stroke="rgba(0, 0, 0, 1)"></use><use xlink:href="#SvgjsPath1055" x="450" y="210" stroke="rgba(0, 0, 0, 1)"></use><use xlink:href="#SvgjsPath1055" x="450" y="270" stroke="rgba(0, 0, 0, 1)"></use><use xlink:href="#SvgjsPath1055" x="450" y="330" stroke="rgba(0, 0, 0, 1)"></use><use xlink:href="#SvgjsPath1052" x="450" y="390" stroke="rgba(0, 0, 0, 1)"></use><use xlink:href="#SvgjsPath1050" x="450" y="450" stroke="rgba(0, 0, 0, 1)"></use><use xlink:href="#SvgjsPath1054" x="450" y="510" stroke="rgba(0, 0, 0, 1)" stroke-width="3"></use><use xlink:href="#SvgjsPath1050" x="450" y="570" stroke="rgba(0, 0, 0, 1)"></use><use xlink:href="#SvgjsPath1050" x="450" y="630" stroke="rgba(0, 0, 0, 1)"></use><use xlink:href="#SvgjsPath1055" x="450" y="690" stroke="rgba(0, 0, 0, 1)"></use><use xlink:href="#SvgjsPath1052" x="510" y="30" stroke="rgba(0, 0, 0, 1)"></use><use xlink:href="#SvgjsPath1055" x="510" y="90" stroke="rgba(0, 0, 0, 1)"></use><use xlink:href="#SvgjsPath1050" x="510" y="150" stroke="rgba(0, 0, 0, 1)"></use><use xlink:href="#SvgjsPath1052" x="510" y="210" stroke="rgba(0, 0, 0, 1)"></use><use xlink:href="#SvgjsPath1055" x="510" y="270" stroke="rgba(0, 0, 0, 1)"></use><use xlink:href="#SvgjsPath1052" x="510" y="330" stroke="rgba(0, 0, 0, 1)"></use><use xlink:href="#SvgjsPath1050" x="510" y="390" stroke="rgba(0, 0, 0, 1)"></use><use xlink:href="#SvgjsPath1055" x="510" y="450" stroke="rgba(0, 0, 0, 1)"></use><use xlink:href="#SvgjsPath1052" x="510" y="510" stroke="rgba(0, 0, 0, 1)"></use><use xlink:href="#SvgjsPath1051" x="510" y="570" stroke="rgba(0, 0, 0, 1)"></use><use xlink:href="#SvgjsPath1052" x="510" y="630" stroke="rgba(0, 0, 0, 1)"></use><use xlink:href="#SvgjsPath1053" x="510" y="690" stroke="rgba(0, 0, 0, 1)"></use><use xlink:href="#SvgjsPath1050" x="570" y="30" stroke="rgba(0, 0, 0, 1)"></use><use xlink:href="#SvgjsPath1051" x="570" y="90" stroke="rgba(0, 0, 0, 1)"></use><use xlink:href="#SvgjsPath1052" x="570" y="150" stroke="rgba(0, 0, 0, 1)"></use><use xlink:href="#SvgjsPath1052" x="570" y="210" stroke="rgba(0, 0, 0, 1)"></use><use xlink:href="#SvgjsPath1051" x="570" y="270" stroke="rgba(0, 0, 0, 1)"></use><use xlink:href="#SvgjsPath1052" x="570" y="330" stroke="rgba(0, 0, 0, 1)"></use><use xlink:href="#SvgjsPath1052" x="570" y="390" stroke="rgba(0, 0, 0, 1)"></use><use xlink:href="#SvgjsPath1055" x="570" y="450" stroke="rgba(0, 0, 0, 1)"></use><use xlink:href="#SvgjsPath1054" x="570" y="510" stroke="rgba(0, 0, 0, 1)" stroke-width="3"></use><use xlink:href="#SvgjsPath1050" x="570" y="570" stroke="rgba(0, 0, 0, 1)"></use><use xlink:href="#SvgjsPath1055" x="570" y="630" stroke="rgba(0, 0, 0, 1)"></use><use xlink:href="#SvgjsPath1055" x="570" y="690" stroke="rgba(0, 0, 0, 1)"></use><use xlink:href="#SvgjsPath1054" x="630" y="30" stroke="rgba(0, 0, 0, 1)" stroke-width="3"></use><use xlink:href="#SvgjsPath1051" x="630" y="90" stroke="rgba(0, 0, 0, 1)"></use><use xlink:href="#SvgjsPath1055" x="630" y="150" stroke="rgba(0, 0, 0, 1)"></use><use xlink:href="#SvgjsPath1053" x="630" y="210" stroke="rgba(0, 0, 0, 1)"></use><use xlink:href="#SvgjsPath1052" x="630" y="270" stroke="rgba(0, 0, 0, 1)"></use><use xlink:href="#SvgjsPath1053" x="630" y="330" stroke="rgba(0, 0, 0, 1)"></use><use xlink:href="#SvgjsPath1055" x="630" y="390" stroke="rgba(0, 0, 0, 1)"></use><use xlink:href="#SvgjsPath1053" x="630" y="450" stroke="rgba(0, 0, 0, 1)"></use><use xlink:href="#SvgjsPath1051" x="630" y="510" stroke="rgba(0, 0, 0, 1)"></use><use xlink:href="#SvgjsPath1055" x="630" y="570" stroke="rgba(0, 0, 0, 1)"></use><use xlink:href="#SvgjsPath1052" x="630" y="630" stroke="rgba(0, 0, 0, 1)"></use><use xlink:href="#SvgjsPath1054" x="630" y="690" stroke="rgba(0, 0, 0, 1)" stroke-width="3"></use><use xlink:href="#SvgjsPath1052" x="690" y="30" stroke="rgba(0, 0, 0, 1)"></use><use xlink:href="#SvgjsPath1055" x="690" y="90" stroke="rgba(0, 0, 0, 1)"></use><use xlink:href="#SvgjsPath1052" x="690" y="150" stroke="rgba(0, 0, 0, 1)"></use><use xlink:href="#SvgjsPath1052" x="690" y="210" stroke="rgba(0, 0, 0, 1)"></use><use xlink:href="#SvgjsPath1050" x="690" y="270" stroke="rgba(0, 0, 0, 1)"></use><use xlink:href="#SvgjsPath1052" x="690" y="330" stroke="rgba(0, 0, 0, 1)"></use><use xlink:href="#SvgjsPath1054" x="690" y="390" stroke="rgba(0, 0, 0, 1)" stroke-width="3"></use><use xlink:href="#SvgjsPath1051" x="690" y="450" stroke="rgba(0, 0, 0, 1)"></use><use xlink:href="#SvgjsPath1052" x="690" y="510" stroke="rgba(0, 0, 0, 1)"></use><use xlink:href="#SvgjsPath1052" x="690" y="570" stroke="rgba(0, 0, 0, 1)"></use><use xlink:href="#SvgjsPath1050" x="690" y="630" stroke="rgba(0, 0, 0, 1)"></use><use xlink:href="#SvgjsPath1052" x="690" y="690" stroke="rgba(0, 0, 0, 1)"></use></symbol></svg>